<svg xmlns="http://www.w3.org/2000/svg" xmlns:xlink="http://www.w3.org/1999/xlink" contentStyleType="text/css" data-diagram-type="CLASS" height="796px" preserveAspectRatio="none" style="width:866px;height:796px;background:#FFFFFF;" version="1.1" viewBox="0 0 866 796" width="866px" zoomAndPan="magnify"><defs/><g><!--cluster src--><g class="cluster" data-entity="src" data-source-line="3" data-uid="ent0002" id="cluster_src"><path d="M13.5,11 L38.0361,11 A3.75,3.75 0 0 1 40.5361,13.5 L47.5361,33.2969 L856.5,33.2969 A2.5,2.5 0 0 1 859,35.7969 L859,786.77 A2.5,2.5 0 0 1 856.5,789.27 L13.5,789.27 A2.5,2.5 0 0 1 11,786.77 L11,13.5 A2.5,2.5 0 0 1 13.5,11" fill="#FFFFFF" style="stroke:#000000;stroke-width:1;"/><line style="stroke:#000000;stroke-width:1;" x1="11" x2="47.5361" y1="33.2969" y2="33.2969"/><text fill="#000000" font-family="Verdana" font-size="14" font-weight="bold" lengthAdjust="spacing" textLength="23.5361" x="15" y="25.9951">src</text></g><!--cluster infrastructure--><g class="cluster" data-entity="infrastructure" data-source-line="5" data-uid="ent0003" id="cluster_infrastructure"><path d="M37.5,54 L148.9619,54 A3.75,3.75 0 0 1 151.4619,56.5 L158.4619,76.2969 L642.5,76.2969 A2.5,2.5 0 0 1 645,78.7969 L645,762.77 A2.5,2.5 0 0 1 642.5,765.27 L37.5,765.27 A2.5,2.5 0 0 1 35,762.77 L35,56.5 A2.5,2.5 0 0 1 37.5,54" fill="#FFFFFF" style="stroke:#000000;stroke-width:1;"/><line style="stroke:#000000;stroke-width:1;" x1="35" x2="158.4619" y1="76.2969" y2="76.2969"/><text fill="#000000" font-family="Verdana" font-size="14" font-weight="bold" lengthAdjust="spacing" textLength="110.4619" x="39" y="68.9951">infrastructure</text></g><!--cluster actors--><g class="cluster" data-entity="actors" data-source-line="7" data-uid="ent0004" id="cluster_actors"><path d="M61.5,97 L111.7939,97 A3.75,3.75 0 0 1 114.2939,99.5 L121.2939,119.2969 L618.5,119.2969 A2.5,2.5 0 0 1 621,121.7969 L621,562.18 A2.5,2.5 0 0 1 618.5,564.68 L61.5,564.68 A2.5,2.5 0 0 1 59,562.18 L59,99.5 A2.5,2.5 0 0 1 61.5,97" fill="#FFFFFF" style="stroke:#000000;stroke-width:1;"/><line style="stroke:#000000;stroke-width:1;" x1="59" x2="121.2939" y1="119.2969" y2="119.2969"/><text fill="#000000" font-family="Verdana" font-size="14" font-weight="bold" lengthAdjust="spacing" textLength="49.2939" x="63" y="111.9951">actors</text></g><!--cluster adapters--><g class="cluster" data-entity="adapters" data-source-line="43" data-uid="ent0012" id="cluster_adapters"><path d="M391.5,613.68 L462.8623,613.68 A3.75,3.75 0 0 1 465.3623,616.18 L472.3623,635.9769 L618.5,635.9769 A2.5,2.5 0 0 1 621,638.4769 L621,738.77 A2.5,2.5 0 0 1 618.5,741.27 L391.5,741.27 A2.5,2.5 0 0 1 389,738.77 L389,616.18 A2.5,2.5 0 0 1 391.5,613.68" fill="#FFFFFF" style="stroke:#000000;stroke-width:1;"/><line style="stroke:#000000;stroke-width:1;" x1="389" x2="472.3623" y1="635.9769" y2="635.9769"/><text fill="#000000" font-family="Verdana" font-size="14" font-weight="bold" lengthAdjust="spacing" textLength="70.3623" x="393" y="628.6751">adapters</text></g><!--cluster domain--><g class="cluster" data-entity="domain" data-source-line="51" data-uid="ent0014" id="cluster_domain"><path d="M671.5,629.97 L730.9404,629.97 A3.75,3.75 0 0 1 733.4404,632.47 L740.4404,652.2669 L832.5,652.2669 A2.5,2.5 0 0 1 835,654.7669 L835,722.47 A2.5,2.5 0 0 1 832.5,724.97 L671.5,724.97 A2.5,2.5 0 0 1 669,722.47 L669,632.47 A2.5,2.5 0 0 1 671.5,629.97" fill="#FFFFFF" style="stroke:#000000;stroke-width:1;"/><line style="stroke:#000000;stroke-width:1;" x1="669" x2="740.4404" y1="652.2669" y2="652.2669"/><text fill="#000000" font-family="Verdana" font-size="14" font-weight="bold" lengthAdjust="spacing" textLength="58.4404" x="673" y="644.9651">domain</text></g><!--class BaseActor--><g class="entity" data-entity="BaseActor" data-source-line="8" data-uid="ent0005" id="entity_BaseActor"><rect fill="#FFFFFF" height="76.5938" rx="2.5" ry="2.5" style="stroke:#000000;stroke-width:1;" width="99.1758" x="475.41" y="132"/><ellipse cx="488.41" cy="146" fill="#FFFFFF" rx="9" ry="9" style="stroke:#000000;stroke-width:1;"/><path d="M485.1131,140.3438 L485.1131,141.7344 L487.3006,141.7344 L484.3944,148.8594 L483.41,148.8594 L483.41,150.25 L487.4413,150.25 L487.4413,148.8594 L485.9256,148.8594 L486.5819,147.1875 L490.41,147.1875 L491.0819,148.8594 L489.5819,148.8594 L489.5819,150.25 L493.6131,150.25 L493.6131,148.8594 L492.66,148.8594 L489.2069,140.3438 L485.1131,140.3438 Z M489.8631,145.7969 L487.16,145.7969 L488.5038,142.5469 L489.8631,145.7969 Z " fill="#000000"/><text fill="#000000" font-family="Verdana" font-size="14" font-style="italic" lengthAdjust="spacing" textLength="71.1758" x="500.41" y="150.8467">BaseActor</text><line style="stroke:#000000;stroke-width:1;" x1="476.41" x2="573.5858" y1="160" y2="160"/><line style="stroke:#000000;stroke-width:1;" x1="476.41" x2="573.5858" y1="168" y2="168"/><ellipse cx="486.41" cy="181.6484" fill="#FFFFFF" rx="3" ry="3" style="stroke:#000000;stroke-width:1;"/><text fill="#000000" font-family="Verdana" font-size="14" lengthAdjust="spacing" textLength="62.624" x="493.41" y="184.9951">tell(msg)</text><ellipse cx="486.41" cy="197.9453" fill="#FFFFFF" rx="3" ry="3" style="stroke:#000000;stroke-width:1;"/><text fill="#000000" font-family="Verdana" font-size="14" lengthAdjust="spacing" textLength="64.7227" x="493.41" y="201.292">ask(msg)</text></g><!--class SCJNCoordinatorActor--><g class="entity" data-entity="SCJNCoordinatorActor" data-source-line="13" data-uid="ent0006" id="entity_SCJNCoordinatorActor"><rect fill="#FFFFFF" height="109.1875" rx="2.5" ry="2.5" style="stroke:#000000;stroke-width:1;" width="187.0918" x="265.45" y="269.6"/><ellipse cx="281.1689" cy="283.6" fill="#FFFFFF" rx="9" ry="9" style="stroke:#000000;stroke-width:1;"/><path d="M284.5751,285.5688 C283.8564,286.2406 282.5595,287.4125 280.8095,287.4125 C278.5908,287.4125 277.622,285.475 277.622,283.5219 C277.622,281.1313 279.1064,279.8656 280.747,279.8656 C282.7626,279.8656 282.9814,281.3813 283.1533,282.475 L284.5751,282.2875 C284.4814,281.7094 284.4033,281.1313 284.4033,280.1625 C284.4033,279.4906 284.4501,278.9438 284.4814,278.5219 L283.0751,278.5219 L282.9658,279.475 C282.372,278.9438 281.7314,278.3969 280.5126,278.3969 C278.4658,278.3969 276.0595,280.225 276.0595,283.5375 C276.0595,286.475 277.8251,288.8656 280.8251,288.8656 C283.2626,288.8656 284.9658,287.2406 285.5595,286.6625 L284.5751,285.5688 Z " fill="#000000"/><text fill="#000000" font-family="Verdana" font-size="14" lengthAdjust="spacing" textLength="153.0498" x="293.7731" y="288.4467">SCJNCoordinatorActor</text><line style="stroke:#000000;stroke-width:1;" x1="266.45" x2="451.5418" y1="297.6" y2="297.6"/><rect fill="none" height="6" style="stroke:#000000;stroke-width:1;" width="6" x="273.45" y="308.2484"/><text fill="#000000" font-family="Verdana" font-size="14" lengthAdjust="spacing" textLength="139.0703" x="283.45" y="314.5951">PipelineState _state</text><rect fill="none" height="6" style="stroke:#000000;stroke-width:1;" width="6" x="273.45" y="324.5453"/><text fill="#000000" font-family="Verdana" font-size="14" lengthAdjust="spacing" textLength="163.0918" x="283.45" y="330.892">deque _pending_queue</text><rect fill="none" height="6" style="stroke:#000000;stroke-width:1;" width="6" x="273.45" y="340.8422"/><text fill="#000000" font-family="Verdana" font-size="14" lengthAdjust="spacing" textLength="154.2461" x="283.45" y="347.1889">int _active_downloads</text><line style="stroke:#000000;stroke-width:1;" x1="266.45" x2="451.5418" y1="354.4906" y2="354.4906"/><ellipse cx="276.45" cy="368.1391" fill="#FFFFFF" rx="3" ry="3" style="stroke:#000000;stroke-width:1;"/><text fill="#000000" font-family="Verdana" font-size="14" lengthAdjust="spacing" textLength="128.5566" x="283.45" y="371.4857">handle_message()</text></g><!--class SCJNDiscoveryActor--><g class="entity" data-entity="SCJNDiscoveryActor" data-source-line="20" data-uid="ent0007" id="entity_SCJNDiscoveryActor"><rect fill="#FFFFFF" height="92.8906" rx="2.5" ry="2.5" style="stroke:#000000;stroke-width:1;" width="197.5371" x="407.23" y="455.79"/><ellipse cx="433.7401" cy="469.79" fill="#FFFFFF" rx="9" ry="9" style="stroke:#000000;stroke-width:1;"/><path d="M437.1464,471.7587 C436.4276,472.4306 435.1307,473.6025 433.3807,473.6025 C431.162,473.6025 430.1932,471.665 430.1932,469.7119 C430.1932,467.3212 431.6776,466.0556 433.3182,466.0556 C435.3339,466.0556 435.5526,467.5712 435.7245,468.665 L437.1464,468.4775 C437.0526,467.8994 436.9745,467.3212 436.9745,466.3525 C436.9745,465.6806 437.0214,465.1337 437.0526,464.7119 L435.6464,464.7119 L435.537,465.665 C434.9432,465.1337 434.3026,464.5869 433.0839,464.5869 C431.037,464.5869 428.6307,466.415 428.6307,469.7275 C428.6307,472.665 430.3964,475.0556 433.3964,475.0556 C435.8339,475.0556 437.537,473.4306 438.1307,472.8525 L437.1464,471.7587 Z " fill="#000000"/><text fill="#000000" font-family="Verdana" font-size="14" lengthAdjust="spacing" textLength="139.5146" x="448.7424" y="474.6367">SCJNDiscoveryActor</text><line style="stroke:#000000;stroke-width:1;" x1="408.23" x2="603.7671" y1="483.79" y2="483.79"/><rect fill="none" height="6" style="stroke:#000000;stroke-width:1;" width="6" x="415.23" y="494.4384"/><text fill="#000000" font-family="Verdana" font-size="14" lengthAdjust="spacing" textLength="157.2197" x="425.23" y="500.7851">ClientSession _session</text><rect fill="none" height="6" style="stroke:#000000;stroke-width:1;" width="6" x="415.23" y="510.7353"/><text fill="#000000" font-family="Verdana" font-size="14" lengthAdjust="spacing" textLength="173.5371" x="425.23" y="517.082">RateLimiter _rate_limiter</text><line style="stroke:#000000;stroke-width:1;" x1="408.23" x2="603.7671" y1="524.3838" y2="524.3838"/><ellipse cx="418.23" cy="538.0322" fill="#FFFFFF" rx="3" ry="3" style="stroke:#000000;stroke-width:1;"/><text fill="#000000" font-family="Verdana" font-size="14" lengthAdjust="spacing" textLength="149.3037" x="425.23" y="541.3789">_fetch_search_page()</text></g><!--class SCJNScraperActor--><g class="entity" data-entity="SCJNScraperActor" data-source-line="26" data-uid="ent0008" id="entity_SCJNScraperActor"><rect fill="#FFFFFF" height="60.2969" rx="2.5" ry="2.5" style="stroke:#000000;stroke-width:1;" width="152.5234" x="74.74" y="472.08"/><ellipse cx="87.74" cy="486.08" fill="#FFFFFF" rx="9" ry="9" style="stroke:#000000;stroke-width:1;"/><path d="M91.1463,488.0488 C90.4275,488.7206 89.1306,489.8925 87.3806,489.8925 C85.1619,489.8925 84.1931,487.955 84.1931,486.0019 C84.1931,483.6113 85.6775,482.3456 87.3181,482.3456 C89.3338,482.3456 89.5525,483.8613 89.7244,484.955 L91.1463,484.7675 C91.0525,484.1894 90.9744,483.6113 90.9744,482.6425 C90.9744,481.9706 91.0213,481.4238 91.0525,481.0019 L89.6463,481.0019 L89.5369,481.955 C88.9431,481.4238 88.3025,480.8769 87.0838,480.8769 C85.0369,480.8769 82.6306,482.705 82.6306,486.0175 C82.6306,488.955 84.3963,491.3456 87.3963,491.3456 C89.8338,491.3456 91.5369,489.7206 92.1306,489.1425 L91.1463,488.0488 Z " fill="#000000"/><text fill="#000000" font-family="Verdana" font-size="14" lengthAdjust="spacing" textLength="124.5234" x="99.74" y="490.9267">SCJNScraperActor</text><line style="stroke:#000000;stroke-width:1;" x1="75.74" x2="226.2634" y1="500.08" y2="500.08"/><line style="stroke:#000000;stroke-width:1;" x1="75.74" x2="226.2634" y1="508.08" y2="508.08"/><ellipse cx="85.74" cy="521.7284" fill="#FFFFFF" rx="3" ry="3" style="stroke:#000000;stroke-width:1;"/><text fill="#000000" font-family="Verdana" font-size="14" lengthAdjust="spacing" textLength="115.3223" x="92.74" y="525.0751">_download_pdf()</text></g><!--class SCJNPersistenceActor--><g class="entity" data-entity="SCJNPersistenceActor" data-source-line="30" data-uid="ent0009" id="entity_SCJNPersistenceActor"><rect fill="#FFFFFF" height="60.2969" rx="2.5" ry="2.5" style="stroke:#000000;stroke-width:1;" width="178.9238" x="261.54" y="140.15"/><ellipse cx="274.54" cy="154.15" fill="#FFFFFF" rx="9" ry="9" style="stroke:#000000;stroke-width:1;"/><path d="M277.9463,156.1187 C277.2275,156.7906 275.9306,157.9625 274.1806,157.9625 C271.9619,157.9625 270.9931,156.025 270.9931,154.0719 C270.9931,151.6812 272.4775,150.4156 274.1181,150.4156 C276.1338,150.4156 276.3525,151.9312 276.5244,153.025 L277.9463,152.8375 C277.8525,152.2594 277.7744,151.6812 277.7744,150.7125 C277.7744,150.0406 277.8213,149.4937 277.8525,149.0719 L276.4463,149.0719 L276.3369,150.025 C275.7431,149.4937 275.1025,148.9469 273.8838,148.9469 C271.8369,148.9469 269.4306,150.775 269.4306,154.0875 C269.4306,157.025 271.1963,159.4156 274.1963,159.4156 C276.6338,159.4156 278.3369,157.7906 278.9306,157.2125 L277.9463,156.1187 Z " fill="#000000"/><text fill="#000000" font-family="Verdana" font-size="14" lengthAdjust="spacing" textLength="150.9238" x="286.54" y="158.9967">SCJNPersistenceActor</text><line style="stroke:#000000;stroke-width:1;" x1="262.54" x2="439.4638" y1="168.15" y2="168.15"/><line style="stroke:#000000;stroke-width:1;" x1="262.54" x2="439.4638" y1="176.15" y2="176.15"/><ellipse cx="272.54" cy="189.7984" fill="#FFFFFF" rx="3" ry="3" style="stroke:#000000;stroke-width:1;"/><text fill="#000000" font-family="Verdana" font-size="14" lengthAdjust="spacing" textLength="106.9277" x="279.54" y="193.1451">_save_to_disk()</text></g><!--class RateLimiter--><g class="entity" data-entity="RateLimiter" data-source-line="34" data-uid="ent0010" id="entity_RateLimiter"><rect fill="#FFFFFF" height="60.2969" rx="2.5" ry="2.5" style="stroke:#000000;stroke-width:1;" width="109.4844" x="262.26" y="472.08"/><ellipse cx="275.26" cy="486.08" fill="#FFFFFF" rx="9" ry="9" style="stroke:#000000;stroke-width:1;"/><path d="M278.6663,488.0488 C277.9475,488.7206 276.6506,489.8925 274.9006,489.8925 C272.6819,489.8925 271.7131,487.955 271.7131,486.0019 C271.7131,483.6113 273.1975,482.3456 274.8381,482.3456 C276.8538,482.3456 277.0725,483.8613 277.2444,484.955 L278.6663,484.7675 C278.5725,484.1894 278.4944,483.6113 278.4944,482.6425 C278.4944,481.9706 278.5413,481.4238 278.5725,481.0019 L277.1663,481.0019 L277.0569,481.955 C276.4631,481.4238 275.8225,480.8769 274.6038,480.8769 C272.5569,480.8769 270.1506,482.705 270.1506,486.0175 C270.1506,488.955 271.9163,491.3456 274.9163,491.3456 C277.3538,491.3456 279.0569,489.7206 279.6506,489.1425 L278.6663,488.0488 Z " fill="#000000"/><text fill="#000000" font-family="Verdana" font-size="14" lengthAdjust="spacing" textLength="81.4844" x="287.26" y="490.9267">RateLimiter</text><line style="stroke:#000000;stroke-width:1;" x1="263.26" x2="370.7444" y1="500.08" y2="500.08"/><line style="stroke:#000000;stroke-width:1;" x1="263.26" x2="370.7444" y1="508.08" y2="508.08"/><ellipse cx="273.26" cy="521.7284" fill="#FFFFFF" rx="3" ry="3" style="stroke:#000000;stroke-width:1;"/><text fill="#000000" font-family="Verdana" font-size="14" lengthAdjust="spacing" textLength="63.2188" x="280.26" y="525.0751">acquire()</text></g><!--class CheckpointActor--><g class="entity" data-entity="CheckpointActor" data-source-line="38" data-uid="ent0011" id="entity_CheckpointActor"><rect fill="#FFFFFF" height="60.2969" rx="2.5" ry="2.5" style="stroke:#000000;stroke-width:1;" width="151.3877" x="75.31" y="140.15"/><ellipse cx="91.6995" cy="154.15" fill="#FFFFFF" rx="9" ry="9" style="stroke:#000000;stroke-width:1;"/><path d="M95.1058,156.1187 C94.387,156.7906 93.0901,157.9625 91.3401,157.9625 C89.1214,157.9625 88.1526,156.025 88.1526,154.0719 C88.1526,151.6812 89.637,150.4156 91.2776,150.4156 C93.2933,150.4156 93.512,151.9312 93.6839,153.025 L95.1058,152.8375 C95.012,152.2594 94.9339,151.6812 94.9339,150.7125 C94.9339,150.0406 94.9808,149.4937 95.012,149.0719 L93.6058,149.0719 L93.4964,150.025 C92.9026,149.4937 92.262,148.9469 91.0433,148.9469 C88.9964,148.9469 86.5901,150.775 86.5901,154.0875 C86.5901,157.025 88.3558,159.4156 91.3558,159.4156 C93.7933,159.4156 95.4964,157.7906 96.0901,157.2125 L95.1058,156.1187 Z " fill="#000000"/><text fill="#000000" font-family="Verdana" font-size="14" lengthAdjust="spacing" textLength="115.8555" x="104.4527" y="158.9967">CheckpointActor</text><line style="stroke:#000000;stroke-width:1;" x1="76.31" x2="225.6977" y1="168.15" y2="168.15"/><line style="stroke:#000000;stroke-width:1;" x1="76.31" x2="225.6977" y1="176.15" y2="176.15"/><ellipse cx="86.31" cy="189.7984" fill="#FFFFFF" rx="3" ry="3" style="stroke:#000000;stroke-width:1;"/><text fill="#000000" font-family="Verdana" font-size="14" lengthAdjust="spacing" textLength="127.3877" x="93.31" y="193.1451">save_checkpoint()</text></g><!--class SearchParser--><g class="entity" data-entity="SearchParser" data-source-line="44" data-uid="ent0013" id="entity_SearchParser"><rect fill="#FFFFFF" height="76.5938" rx="2.5" ry="2.5" style="stroke:#000000;stroke-width:1;" width="199.6016" x="405.2" y="648.68"/><ellipse cx="435.3677" cy="662.68" fill="#FFFFFF" rx="9" ry="9" style="stroke:#000000;stroke-width:1;"/><path d="M438.7739,664.6488 C438.0552,665.3206 436.7583,666.4925 435.0083,666.4925 C432.7896,666.4925 431.8208,664.555 431.8208,662.6019 C431.8208,660.2113 433.3052,658.9456 434.9458,658.9456 C436.9614,658.9456 437.1802,660.4613 437.3521,661.555 L438.7739,661.3675 C438.6802,660.7894 438.6021,660.2113 438.6021,659.2425 C438.6021,658.5706 438.6489,658.0238 438.6802,657.6019 L437.2739,657.6019 L437.1646,658.555 C436.5708,658.0238 435.9302,657.4769 434.7114,657.4769 C432.6646,657.4769 430.2583,659.305 430.2583,662.6175 C430.2583,665.555 432.0239,667.9456 435.0239,667.9456 C437.4614,667.9456 439.1646,666.3206 439.7583,665.7425 L438.7739,664.6488 Z " fill="#000000"/><text fill="#000000" font-family="Verdana" font-size="14" lengthAdjust="spacing" textLength="133.4512" x="451.1827" y="667.5267">scjn_search_parser</text><line style="stroke:#000000;stroke-width:1;" x1="406.2" x2="603.8016" y1="676.68" y2="676.68"/><line style="stroke:#000000;stroke-width:1;" x1="406.2" x2="603.8016" y1="684.68" y2="684.68"/><ellipse cx="416.2" cy="698.3284" fill="#FFFFFF" rx="3" ry="3" style="stroke:#000000;stroke-width:1;"/><text fill="#000000" font-family="Verdana" font-size="14" lengthAdjust="spacing" textLength="158.0742" x="423.2" y="701.6751">parse_search_results()</text><ellipse cx="416.2" cy="714.6253" fill="#FFFFFF" rx="3" ry="3" style="stroke:#000000;stroke-width:1;"/><text fill="#000000" font-family="Verdana" font-size="14" lengthAdjust="spacing" textLength="175.6016" x="423.2" y="717.972">extract_pagination_info()</text></g><!--class SCJNDocument--><g class="entity" data-entity="SCJNDocument" data-source-line="52" data-uid="ent0015" id="entity_SCJNDocument"><rect fill="#FFFFFF" height="44" rx="2.5" ry="2.5" style="stroke:#000000;stroke-width:1;" width="133.793" x="685.1" y="664.97"/><ellipse cx="698.1" cy="678.97" fill="#FFFFFF" rx="9" ry="9" style="stroke:#000000;stroke-width:1;"/><path d="M701.5063,680.9388 C700.7875,681.6106 699.4906,682.7825 697.7406,682.7825 C695.5219,682.7825 694.5531,680.845 694.5531,678.8919 C694.5531,676.5013 696.0375,675.2356 697.6781,675.2356 C699.6938,675.2356 699.9125,676.7513 700.0844,677.845 L701.5063,677.6575 C701.4125,677.0794 701.3344,676.5013 701.3344,675.5325 C701.3344,674.8606 701.3813,674.3138 701.4125,673.8919 L700.0063,673.8919 L699.8969,674.845 C699.3031,674.3138 698.6625,673.7669 697.4438,673.7669 C695.3969,673.7669 692.9906,675.595 692.9906,678.9075 C692.9906,681.845 694.7563,684.2356 697.7563,684.2356 C700.1938,684.2356 701.8969,682.6106 702.4906,682.0325 L701.5063,680.9388 Z " fill="#000000"/><text fill="#000000" font-family="Verdana" font-size="14" lengthAdjust="spacing" textLength="105.793" x="710.1" y="683.8167">SCJNDocument</text><line style="stroke:#000000;stroke-width:1;" x1="686.1" x2="817.893" y1="692.97" y2="692.97"/><line style="stroke:#000000;stroke-width:1;" x1="686.1" x2="817.893" y1="700.97" y2="700.97"/></g><!--reverse link BaseActor to SCJNCoordinatorActor--><g class="link" data-entity-1="BaseActor" data-entity-2="SCJNCoordinatorActor" data-source-line="57" data-uid="lnk16" id="link_BaseActor_SCJNCoordinatorActor"><path codeLine="57" d="M470.6868,220.9973 C450.8068,239.1773 439.86,249.2 418.05,269.16" fill="none" id="BaseActor-backto-SCJNCoordinatorActor" style="stroke:#000000;stroke-width:1;"/><polygon fill="none" points="483.97,208.85,466.6377,216.5696,474.7359,225.425,483.97,208.85" style="stroke:#000000;stroke-width:1;"/></g><!--reverse link BaseActor to SCJNDiscoveryActor--><g class="link" data-entity-1="BaseActor" data-entity-2="SCJNDiscoveryActor" data-source-line="58" data-uid="lnk17" id="link_BaseActor_SCJNDiscoveryActor"><path codeLine="58" d="M521.8055,226.8002 C518.3055,287.6002 512.44,389.49 508.65,455.3" fill="none" id="BaseActor-backto-SCJNDiscoveryActor" style="stroke:#000000;stroke-width:1;"/><polygon fill="none" points="522.84,208.83,515.8154,226.4554,527.7956,227.1451,522.84,208.83" style="stroke:#000000;stroke-width:1;"/></g><!--reverse link BaseActor to SCJNScraperActor--><g class="link" data-entity-1="BaseActor" data-entity-2="SCJNScraperActor" data-source-line="59" data-uid="lnk18" id="link_BaseActor_SCJNScraperActor"><path codeLine="59" d="M459.043,208.7551 C453.363,211.6151 463.65,206.24 458,208.6 C368.3,246.03 320.52,204.9 248,269.6 C187.16,323.87 163.45,422.45 155.08,471.65" fill="none" id="BaseActor-backto-SCJNScraperActor" style="stroke:#000000;stroke-width:1;"/><polygon fill="none" points="475.12,200.66,456.3447,203.3961,461.7414,214.1141,475.12,200.66" style="stroke:#000000;stroke-width:1;"/></g><!--link SCJNCoordinatorActor to SCJNDiscoveryActor--><g class="link" data-entity-1="SCJNCoordinatorActor" data-entity-2="SCJNDiscoveryActor" data-source-line="62" data-uid="lnk19" id="link_SCJNCoordinatorActor_SCJNDiscoveryActor"><path codeLine="62" d="M403.9,378.97 C424.34,403.44 444.4129,427.4857 463.9729,450.8957" fill="none" id="SCJNCoordinatorActor-to-SCJNDiscoveryActor" style="stroke:#000000;stroke-width:1;"/><polygon fill="#000000" points="467.82,455.5,465.1189,446.0288,464.6141,451.6631,458.9798,451.1582,467.82,455.5" style="stroke:#000000;stroke-width:1;"/><text fill="#000000" font-family="Verdana" font-size="13" lengthAdjust="spacing" textLength="59.8584" x="442" y="421.8569">manages</text></g><!--link SCJNCoordinatorActor to SCJNScraperActor--><g class="link" data-entity-1="SCJNCoordinatorActor" data-entity-2="SCJNScraperActor" data-source-line="63" data-uid="lnk20" id="link_SCJNCoordinatorActor_SCJNScraperActor"><path codeLine="63" d="M295.18,379.21 C259.23,409.63 220.2997,442.5736 190.5397,467.7636" fill="none" id="SCJNCoordinatorActor-to-SCJNScraperActor" style="stroke:#000000;stroke-width:1;"/><polygon fill="#000000" points="185.96,471.64,195.4138,468.8785,189.7764,468.4097,190.2452,462.7723,185.96,471.64" style="stroke:#000000;stroke-width:1;"/><text fill="#000000" font-family="Verdana" font-size="13" lengthAdjust="spacing" textLength="59.8584" x="256" y="421.8569">manages</text></g><!--link SCJNCoordinatorActor to RateLimiter--><g class="link" data-entity-1="SCJNCoordinatorActor" data-entity-2="RateLimiter" data-source-line="64" data-uid="lnk21" id="link_SCJNCoordinatorActor_RateLimiter"><path codeLine="64" d="M346.17,378.97 C338.88,409.5 331.4432,440.714 325.4132,465.974" fill="none" id="SCJNCoordinatorActor-to-RateLimiter" style="stroke:#000000;stroke-width:1;"/><polygon fill="#000000" points="324.02,471.81,330.0004,463.9847,325.181,466.9467,322.2191,462.1272,324.02,471.81" style="stroke:#000000;stroke-width:1;"/><text fill="#000000" font-family="Verdana" font-size="13" lengthAdjust="spacing" textLength="29.7832" x="339" y="421.8569">uses</text></g><!--link SCJNDiscoveryActor to SearchParser--><g class="link" data-entity-1="SCJNDiscoveryActor" data-entity-2="SearchParser" data-source-line="65" data-uid="lnk22" id="link_SCJNDiscoveryActor_SearchParser"><path codeLine="65" d="M505.75,548.87 C505.58,579.53 505.3912,613.4401 505.2412,642.2901" fill="none" id="SCJNDiscoveryActor-to-SearchParser" style="stroke:#000000;stroke-width:1;"/><polygon fill="#000000" points="505.21,648.29,509.2567,639.3109,505.236,643.2901,501.2568,639.2693,505.21,648.29" style="stroke:#000000;stroke-width:1;"/><text fill="#000000" font-family="Verdana" font-size="13" lengthAdjust="spacing" textLength="29.7832" x="506" y="593.7469">uses</text></g><!--link SCJNDiscoveryActor to SCJNDocument--><g class="link" data-entity-1="SCJNDiscoveryActor" data-entity-2="SCJNDocument" data-source-line="66" data-uid="lnk23" id="link_SCJNDiscoveryActor_SCJNDocument"><path codeLine="66" d="M567.76,549.11 C617.57,586.11 680.5636,632.902 718.4836,661.072" fill="none" id="SCJNDiscoveryActor-to-SCJNDocument" style="stroke:#000000;stroke-width:1;stroke-dasharray:7,7;"/><polygon fill="#000000" points="723.3,664.65,718.4607,656.072,719.2863,661.6683,713.69,662.4939,723.3,664.65" style="stroke:#000000;stroke-width:1;"/><text fill="#000000" font-family="Verdana" font-size="13" lengthAdjust="spacing" textLength="99.0171" x="630" y="593.7469">yields q_param</text></g><!--SRC=[ZLFHRjim37ptLt1vMOR1_O1YAD1bBokA8PW_GE0a9jOYIuueToks_FjeEqcLn6iA69157Kz7yVWkrTGGj0wjBueMzGRN13EEUWP_2W3vZa7hLn4vnKwdBj9uFY0o3EeK8X_E0F2794WGj4Dc-8nCzpta203u28cScpUy_f35a3TvQBTVzyl8LYqUlYr2YCPw5CvpuXAMjYLdFLK94u7YVicE3Mqx2RVaXM6jPDFbnzOdKABTFf4ouPTt0Grd4clqnf5gY5bgdr-L-iMo3ayKdo-5BfmbdofXii6BqF4d0tmNvO-siOaYg2WRvSPTfaUjAEbQaZ7Aqhv9KwKZjXGlUtAiMBLcTPrdIP4j9_9weh-AKPum1MMiTFLLhhpEd0BrjhFnIa6BclIc3TAtIms317q4d17jfgnii1KPcPd7MsQiV_gNLuvCSIPsXMg8B8V0oTK3vf0GYJkNU9vxdNuFCzAth7UoT5x9h8K9ZRkpaJIXaS4zACoi5dJNYAE6b5rHl8UllgPe4qg3YfSf_FItB2V7Q0fpwjyfHEwc_j9xvg3jK14NazDQbdTJit4B3Ngfy4hMYNlVa9ExwnOwtcFFBX_OysR-7tfpStVotW9zjkGCmxQt1ZR5Fm00]--></g></svg>