<svg xmlns="http://www.w3.org/2000/svg" xmlns:xlink="http://www.w3.org/1999/xlink" contentStyleType="text/css" data-diagram-type="DESCRIPTION" height="360px" preserveAspectRatio="none" style="width:212px;height:360px;background:#FFFFFF;" version="1.1" viewBox="0 0 212 360" width="212px" zoomAndPan="magnify"><defs/><g><!--cluster Host--><g class="cluster" data-entity="Host" data-source-line="1" data-uid="ent0002" id="cluster_Host"><polygon fill="none" points="16,16,26,6,195,6,195,333.89,185,343.89,16,343.89,16,16" style="stroke:#181818;stroke-width:1;"/><line style="stroke:#181818;stroke-width:1;" x1="185" x2="195" y1="16" y2="6"/><line style="stroke:#181818;stroke-width:1;" x1="16" x2="185" y1="16" y2="16"/><line style="stroke:#181818;stroke-width:1;" x1="185" x2="185" y1="16" y2="343.89"/><text fill="#000000" font-family="sans-serif" font-size="14" font-weight="bold" lengthAdjust="spacing" textLength="36.3604" x="83.3198" y="31.9951">Host</text></g><!--cluster Docker--><g class="cluster" data-entity="Docker" data-source-line="3" data-uid="ent0004" id="cluster_Docker"><polygon fill="none" points="40,122.3,50,112.3,171,112.3,171,309.89,161,319.89,40,319.89,40,122.3" style="stroke:#181818;stroke-width:1;"/><line style="stroke:#181818;stroke-width:1;" x1="161" x2="171" y1="122.3" y2="112.3"/><line style="stroke:#181818;stroke-width:1;" x1="40" x2="161" y1="122.3" y2="122.3"/><line style="stroke:#181818;stroke-width:1;" x1="161" x2="161" y1="122.3" y2="319.89"/><text fill="#000000" font-family="sans-serif" font-size="14" font-weight="bold" lengthAdjust="spacing" textLength="55.248" x="73.876" y="138.2951">Docker</text></g><!--entity GUI--><g class="entity" data-entity="GUI" data-source-line="2" data-uid="ent0003" id="entity_GUI"><rect fill="#F1F1F1" height="46.2969" rx="2.5" ry="2.5" style="stroke:#181818;stroke-width:0.5;" width="65.2246" x="72.39" y="46"/><rect fill="#F1F1F1" height="10" style="stroke:#181818;stroke-width:0.5;" width="15" x="117.6146" y="51"/><rect fill="#F1F1F1" height="2" style="stroke:#181818;stroke-width:0.5;" width="4" x="115.6146" y="53"/><rect fill="#F1F1F1" height="2" style="stroke:#181818;stroke-width:0.5;" width="4" x="115.6146" y="57"/><text fill="#000000" font-family="sans-serif" font-size="14" lengthAdjust="spacing" textLength="25.2246" x="87.39" y="78.9951">GUI</text></g><!--entity Scraper--><g class="entity" data-entity="Scraper" data-source-line="4" data-uid="ent0005" id="entity_Scraper"><rect fill="#F1F1F1" height="46.2969" rx="2.5" ry="2.5" style="stroke:#181818;stroke-width:0.5;" width="94.1748" x="57.91" y="152.3"/><rect fill="#F1F1F1" height="10" style="stroke:#181818;stroke-width:0.5;" width="15" x="132.0848" y="157.3"/><rect fill="#F1F1F1" height="2" style="stroke:#181818;stroke-width:0.5;" width="4" x="130.0848" y="159.3"/><rect fill="#F1F1F1" height="2" style="stroke:#181818;stroke-width:0.5;" width="4" x="130.0848" y="163.3"/><text fill="#000000" font-family="sans-serif" font-size="14" lengthAdjust="spacing" textLength="54.1748" x="72.91" y="185.2951">Scraper</text></g><!--entity Data--><g class="entity" data-entity="Data" data-source-line="5" data-uid="ent0006" id="entity_Data"><path d="M78.29,268.59 C78.29,258.59 105.0039,258.59 105.0039,258.59 C105.0039,258.59 131.7177,258.59 131.7177,268.59 L131.7177,293.8869 C131.7177,303.8869 105.0039,303.8869 105.0039,303.8869 C105.0039,303.8869 78.29,303.8869 78.29,293.8869 L78.29,268.59" fill="#F1F1F1" style="stroke:#181818;stroke-width:0.5;"/><path d="M78.29,268.59 C78.29,278.59 105.0039,278.59 105.0039,278.59 C105.0039,278.59 131.7177,278.59 131.7177,268.59" fill="none" style="stroke:#181818;stroke-width:0.5;"/><text fill="#000000" font-family="sans-serif" font-size="14" lengthAdjust="spacing" textLength="33.4277" x="88.29" y="295.5851">Data</text></g><!--link GUI to Scraper--><g class="link" data-entity-1="GUI" data-entity-2="Scraper" data-source-line="8" data-uid="lnk7" id="link_GUI_Scraper"><path d="M105,92.78 C105,110.27 105,128.38 105,145.86" fill="none" id="GUI-to-Scraper" style="stroke:#181818;stroke-width:1;"/><polygon fill="#181818" points="105,151.86,109,142.86,105,146.86,101,142.86,105,151.86" style="stroke:#181818;stroke-width:1;"/></g><!--link Scraper to Data--><g class="link" data-entity-1="Scraper" data-entity-2="Data" data-source-line="9" data-uid="lnk8" id="link_Scraper_Data"><path d="M105,198.97 C105,216.5 105,234.69 105,252.12" fill="none" id="Scraper-to-Data" style="stroke:#181818;stroke-width:1;"/><polygon fill="#181818" points="105,258.12,109,249.12,105,253.12,101,249.12,105,258.12" style="stroke:#181818;stroke-width:1;"/></g><!--SRC=[oyjFILLGyiWlBb5IgEPIK8Xs3_MC1T9vO76N_EJir2A8350kEBaeiI2rA1RCIqaiIKnAB0Qf0hAKW6ArNBLSOFqAkhfsIAhXB8WuI7ai0000]--></g></svg>