<svg xmlns="http://www.w3.org/2000/svg" xmlns:xlink="http://www.w3.org/1999/xlink" contentStyleType="text/css" data-diagram-type="DESCRIPTION" height="463px" preserveAspectRatio="none" style="width:807px;height:463px;background:#FFFFFF;" version="1.1" viewBox="0 0 807 463" width="807px" zoomAndPan="magnify"><defs/><g><!--cluster Docker Host--><g class="cluster" data-entity="Docker Host" data-source-line="3" data-uid="ent0002" id="cluster_Docker Host"><polygon fill="#FFFFFF" points="21,21,31,11,450,11,450,436.89,440,446.89,21,446.89,21,21" style="stroke:#000000;stroke-width:1;"/><line style="stroke:#000000;stroke-width:1;" x1="440" x2="450" y1="21" y2="11"/><line style="stroke:#000000;stroke-width:1;" x1="21" x2="440" y1="21" y2="21"/><line style="stroke:#000000;stroke-width:1;" x1="440" x2="440" y1="21" y2="446.89"/><text fill="#000000" font-family="Verdana" font-size="14" font-weight="bold" lengthAdjust="spacing" textLength="96.4824" x="183.2588" y="36.9951">Docker Host</text></g><!--cluster Container: legal-scraper--><g class="cluster" data-entity="Container. legal-scraper" data-source-line="5" data-uid="ent0003" id="cluster_Container. legal-scraper"><polygon fill="#FFFFFF" points="159,69,169,59,426,59,426,303.59,416,313.59,159,313.59,159,69" style="stroke:#000000;stroke-width:1;"/><line style="stroke:#000000;stroke-width:1;" x1="416" x2="426" y1="69" y2="59"/><line style="stroke:#000000;stroke-width:1;" x1="159" x2="416" y1="69" y2="69"/><line style="stroke:#000000;stroke-width:1;" x1="416" x2="416" y1="69" y2="313.59"/><text fill="#000000" font-family="Verdana" font-size="14" font-weight="bold" lengthAdjust="spacing" textLength="191.4131" x="192.7935" y="84.9951">Container: legal-scraper</text></g><!--cluster Internet--><g class="cluster" data-entity="Internet" data-source-line="17" data-uid="ent0010" id="cluster_Internet"><path d="M483.9083,223.4758 C489.478,215.259 497.2902,212.1578 503.7332,222.5452 C507.8138,209.9206 518.4857,209.775 525.9689,219.0979 C532.4303,208.396 542.2557,209.7894 547.6052,220.2354 C555.144,209.0729 562.2878,208.8531 569.1313,220.8808 C574.5409,210.9793 582.6097,209.2061 590.489,218.07 C597.3488,207.3738 604.1535,206.0112 611.9641,217.1343 C617.0582,209.4979 625.6976,210.1622 630.2361,217.799 C637.0761,206.2966 646.8655,209.1479 653.0435,218.5221 C659.5167,209.8348 669.1271,208.7268 673.6425,220.4938 C678.5878,209.6006 688.1324,210.9667 693.712,219.8501 C699.6878,210.4056 709.5821,210.0951 714.692,220.7538 C721.6462,210.1095 732.8158,209.6955 737.6163,222.8301 C742.8367,213.6637 749.457,211.9727 757.1624,220.006 C765.5496,208.9035 773.9227,211.3086 779.1078,223.0783 C790.2419,226.0297 791.2986,232.241 786.2293,241.4674 C798.0151,244.1943 799.0221,254.323 792.0707,262.303 C800.8508,272.3052 795.865,281.2222 783.6595,282.473 C792.8663,290.9627 790.3395,299.2682 779.0421,303.1873 C772.7614,312.1971 765.7585,313.0151 758.4629,304.3703 C753.44,315.5968 744.1974,315.0511 738.0586,305.4642 C731.2239,314.3861 723.7914,316.0834 717.1634,305.2456 C709.0867,315.9496 700.6284,314.7312 693.1135,304.5972 C687.0832,313.1676 681.0551,313.6961 674.6919,304.9515 C667.3656,317.3734 658.8587,316.2867 650.6125,305.9236 C645.4454,315.1759 638.044,314.1782 632.3111,306.5366 C626.2598,318.0818 615.6051,316.0043 610.3417,305.7428 C603.2968,315.433 595.8227,315.8727 589.8212,304.7158 C584.3834,315.0813 574.5014,316.3441 566.8328,307.3671 C558.6787,315.372 552.344,314.4964 547.0568,304.2591 C540.8699,312.7909 532.3777,311.9251 527.5656,302.7462 C521.009,311.9915 512.8438,313.0602 506.8025,302.2137 C499.6116,313.7521 489.5141,313.9509 482.1031,302.4495 C474.4398,296.4177 474.9086,290.1937 482.7396,284.7181 C470.998,280.7795 468.3258,270.4227 476.9373,261.4162 C470.2634,252.8538 471.0817,245.0372 482.7985,242.037 C474.0478,236.3292 475.3062,228.1461 483.9083,223.4758" fill="#FFFFFF" style="stroke:#000000;stroke-width:1;"/><text fill="#000000" font-family="Verdana" font-size="14" font-weight="bold" lengthAdjust="spacing" textLength="64.4219" x="597.2891" y="238.2951">Internet</text></g><!--entity HostData--><g class="entity" data-entity="HostData" data-source-line="10" data-uid="ent0006" id="entity_HostData"><path d="M265.79,376.59 L306.79,376.59 A3.75,3.75 0 0 1 309.29,379.09 L316.29,397.59 L394.2041,397.59 A2.5,2.5 0 0 1 396.7041,400.09 L396.7041,428.3869 A2.5,2.5 0 0 1 394.2041,430.8869 L265.79,430.8869 A2.5,2.5 0 0 1 263.29,428.3869 L263.29,379.09 A2.5,2.5 0 0 1 265.79,376.59" fill="#FFFFFF" style="stroke:#000000;stroke-width:1;"/><line style="stroke:#000000;stroke-width:1;" x1="263.29" x2="316.29" y1="397.59" y2="397.59"/><text fill="#000000" font-family="Verdana" font-size="14" lengthAdjust="spacing" textLength="103.4141" x="273.29" y="417.5851">./scraped_data</text></g><!--entity HostSCJN--><g class="entity" data-entity="HostSCJN" data-source-line="11" data-uid="ent0007" id="entity_HostSCJN"><path d="M39.77,95 L80.77,95 A3.75,3.75 0 0 1 83.27,97.5 L90.27,116 L140.2251,116 A2.5,2.5 0 0 1 142.7251,118.5 L142.7251,146.7969 A2.5,2.5 0 0 1 140.2251,149.2969 L39.77,149.2969 A2.5,2.5 0 0 1 37.27,146.7969 L37.27,97.5 A2.5,2.5 0 0 1 39.77,95" fill="#FFFFFF" style="stroke:#000000;stroke-width:1;"/><line style="stroke:#000000;stroke-width:1;" x1="37.27" x2="90.27" y1="116" y2="116"/><text fill="#000000" font-family="Verdana" font-size="14" lengthAdjust="spacing" textLength="75.4551" x="47.27" y="135.9951">./scjn_data</text></g><!--entity Python Runtime--><g class="entity" data-entity="Python Runtime" data-source-line="6" data-uid="ent0004" id="entity_Python Runtime"><rect fill="#FFFFFF" height="46.2969" rx="2.5" ry="2.5" style="stroke:#000000;stroke-width:1;" width="152.082" x="257.96" y="99"/><rect fill="#FFFFFF" height="10" style="stroke:#000000;stroke-width:1;" width="15" x="390.042" y="104"/><rect fill="#FFFFFF" height="2" style="stroke:#000000;stroke-width:1;" width="4" x="388.042" y="106"/><rect fill="#FFFFFF" height="2" style="stroke:#000000;stroke-width:1;" width="4" x="388.042" y="110"/><text fill="#000000" font-family="Verdana" font-size="14" lengthAdjust="spacing" textLength="112.082" x="272.96" y="131.9951">Python Runtime</text></g><!--entity ContainerData--><g class="entity" data-entity="ContainerData" data-source-line="7" data-uid="ent0005" id="entity_ContainerData"><path d="M252.48,243.3 L293.48,243.3 A3.75,3.75 0 0 1 295.98,245.8 L302.98,264.3 L407.5132,264.3 A2.5,2.5 0 0 1 410.0132,266.8 L410.0132,295.0969 A2.5,2.5 0 0 1 407.5132,297.5969 L252.48,297.5969 A2.5,2.5 0 0 1 249.98,295.0969 L249.98,245.8 A2.5,2.5 0 0 1 252.48,243.3" fill="#FFFFFF" style="stroke:#000000;stroke-width:1;"/><line style="stroke:#000000;stroke-width:1;" x1="249.98" x2="302.98" y1="264.3" y2="264.3"/><text fill="#000000" font-family="Verdana" font-size="14" lengthAdjust="spacing" textLength="130.0332" x="259.98" y="284.2951">/app/scraped_data</text></g><!--entity dof.gob.mx--><g class="entity" data-entity="dof.gob.mx" data-source-line="18" data-uid="ent0011" id="entity_dof.gob.mx"><rect fill="#FFFFFF" height="46.2969" rx="2.5" ry="2.5" style="stroke:#000000;stroke-width:1;" width="119.543" x="490.23" y="247.3"/><rect fill="#FFFFFF" height="10" style="stroke:#000000;stroke-width:1;" width="15" x="589.773" y="252.3"/><rect fill="#FFFFFF" height="2" style="stroke:#000000;stroke-width:1;" width="4" x="587.773" y="254.3"/><rect fill="#FFFFFF" height="2" style="stroke:#000000;stroke-width:1;" width="4" x="587.773" y="258.3"/><text fill="#000000" font-family="Verdana" font-size="14" lengthAdjust="spacing" textLength="79.543" x="505.23" y="280.2951">dof.gob.mx</text></g><!--entity scjn.gob.mx--><g class="entity" data-entity="scjn.gob.mx" data-source-line="19" data-uid="ent0012" id="entity_scjn.gob.mx"><rect fill="#FFFFFF" height="46.2969" rx="2.5" ry="2.5" style="stroke:#000000;stroke-width:1;" width="124.916" x="644.54" y="247.3"/><rect fill="#FFFFFF" height="10" style="stroke:#000000;stroke-width:1;" width="15" x="749.456" y="252.3"/><rect fill="#FFFFFF" height="2" style="stroke:#000000;stroke-width:1;" width="4" x="747.456" y="254.3"/><rect fill="#FFFFFF" height="2" style="stroke:#000000;stroke-width:1;" width="4" x="747.456" y="258.3"/><text fill="#000000" font-family="Verdana" font-size="14" lengthAdjust="spacing" textLength="84.916" x="659.54" y="280.2951">scjn.gob.mx</text></g><!--link Python Runtime to ContainerData--><g class="link" data-entity-1="Python Runtime" data-entity-2="ContainerData" data-source-line="13" data-uid="lnk8" id="link_Python Runtime_ContainerData"><path d="M333.38,145.69 C332.67,171.9 331.654,230.1122 330.894,257.9122" fill="none" id="Python Runtime-to-ContainerData" style="stroke:#000000;stroke-width:1;"/><polygon fill="#000000" points="330.73,263.91,334.9745,255.0227,330.8666,258.9119,326.9774,254.804,330.73,263.91" style="stroke:#000000;stroke-width:1;"/><text fill="#000000" font-family="Verdana" font-size="13" lengthAdjust="spacing" textLength="77.854" x="334" y="192.3669">Writes JSON</text></g><!--link ContainerData to HostData--><g class="link" data-entity-1="ContainerData" data-entity-2="HostData" data-source-line="14" data-uid="lnk9" id="link_ContainerData_HostData"><path d="M330,304.01 C330,326.79 330,368.44 330,391.21" fill="none" id="ContainerData-HostData" style="stroke:#000000;stroke-width:1;"/><polygon fill="#000000" points="330,298.01,326,307.01,330,303.01,334,307.01,330,298.01" style="stroke:#000000;stroke-width:1;"/><polygon fill="#000000" points="330,397.21,334,388.21,330,392.21,326,388.21,330,397.21" style="stroke:#000000;stroke-width:1;"/><text fill="#000000" font-family="Verdana" font-size="13" lengthAdjust="spacing" textLength="94.2373" x="331" y="342.6569">Volume Mount</text></g><!--link Python Runtime to dof.gob.mx--><g class="link" data-entity-1="Python Runtime" data-entity-2="dof.gob.mx" data-source-line="22" data-uid="lnk13" id="link_Python Runtime_dof.gob.mx"><path d="M368.88,145.6 C384.57,155.79 403.28,168.05 420,179.3 C453.72,201.99 486.9878,225.1347 513.2078,243.5247" fill="none" id="Python Runtime-to-dof.gob.mx" style="stroke:#000000;stroke-width:1;"/><polygon fill="#000000" points="518.12,246.97,513.0485,238.5272,514.0265,244.0989,508.4548,245.0769,518.12,246.97" style="stroke:#000000;stroke-width:1;"/><text fill="#000000" font-family="Verdana" font-size="13" lengthAdjust="spacing" textLength="80.8374" x="447" y="192.3669">HTTPS (443)</text></g><!--link Python Runtime to scjn.gob.mx--><g class="link" data-entity-1="Python Runtime" data-entity-2="scjn.gob.mx" data-source-line="23" data-uid="lnk14" id="link_Python Runtime_scjn.gob.mx"><path d="M410.32,135.33 C471.39,147.14 557.95,168.63 627,204.3 C648.48,215.39 665.169,228.8111 680.289,242.8911" fill="none" id="Python Runtime-to-scjn.gob.mx" style="stroke:#000000;stroke-width:1;"/><polygon fill="#000000" points="684.68,246.98,680.8195,237.9193,681.0209,243.5725,675.3676,243.7739,684.68,246.98" style="stroke:#000000;stroke-width:1;"/><text fill="#000000" font-family="Verdana" font-size="13" lengthAdjust="spacing" textLength="80.8374" x="605" y="192.3669">HTTPS (443)</text></g><!--SRC=[TP2nJiCm48PtFyNX2OQa0vqgnD8EfH9GaGg6224JNzk0SsSvZWH2VNTit5P90IcBSz_t_wSxyrji4AnHDGb1h17aZAjtT33dralu4W3XIvCfamyWkWaOt2YJjPLJ5bt202fkB1EIXtBvwRTCyD2Hhnjy_XclsUWGB4VAsb5IzOjMNabGBHp3P-5Fu7Uf-I3blusuuHxkKsyqH8hfuYvbdMu5MNOzx8K9FBdQOmkBuZvQm-bL50wrWNraquNptN8853iXAiET1db37XtX_dobvdM-uTUy-OXtAEE6ntUG_jogBuMY-MgrBE1yFBwy-8Vlfvu8tm00]--></g></svg>