<svg xmlns="http://www.w3.org/2000/svg" xmlns:xlink="http://www.w3.org/1999/xlink" contentStyleType="text/css" data-diagram-type="ACTIVITY" height="924px" preserveAspectRatio="none" style="width:959px;height:924px;background:#FFFFFF;" version="1.1" viewBox="0 0 959 924" width="959px" zoomAndPan="magnify"><defs/><g><ellipse cx="488.7959" cy="20" fill="#222222" rx="10" ry="10" style="stroke:#222222;stroke-width:1;"/><rect fill="#F1F1F1" height="33.9688" rx="12.5" ry="12.5" style="stroke:#181818;stroke-width:0.5;" width="125.668" x="425.9619" y="50"/><text fill="#000000" font-family="sans-serif" font-size="12" lengthAdjust="spacing" textLength="105.668" x="435.9619" y="71.1387">Run scjn_main.py</text><polygon fill="#F1F1F1" points="241.8108,103.9688,304.1853,103.9688,316.1853,115.9688,304.1853,127.9688,241.8108,127.9688,229.8108,115.9688,241.8108,103.9688" style="stroke:#181818;stroke-width:0.5;"/><text fill="#000000" font-family="sans-serif" font-size="11" lengthAdjust="spacing" textLength="46.3472" x="276.998" y="138.1792">discover</text><text fill="#000000" font-family="sans-serif" font-size="11" lengthAdjust="spacing" textLength="62.3745" x="241.8108" y="119.7769">Command?</text><rect fill="#F1F1F1" height="33.9688" rx="12.5" ry="12.5" style="stroke:#181818;stroke-width:0.5;" width="83.1289" x="231.4336" y="160.7734"/><text fill="#000000" font-family="sans-serif" font-size="12" lengthAdjust="spacing" textLength="63.1289" x="241.4336" y="181.9121">Parse args</text><rect fill="#F1F1F1" height="33.9688" rx="12.5" ry="12.5" style="stroke:#181818;stroke-width:0.5;" width="134.8379" x="205.5791" y="227.5469"/><text fill="#000000" font-family="sans-serif" font-size="12" lengthAdjust="spacing" textLength="114.8379" x="215.5791" y="248.6855">Create Coordinator</text><rect fill="#F1F1F1" height="33.9688" rx="12.5" ry="12.5" style="stroke:#181818;stroke-width:0.5;" width="155.0234" x="195.4863" y="294.3203"/><text fill="#000000" font-family="sans-serif" font-size="12" lengthAdjust="spacing" textLength="135.0234" x="205.4863" y="315.459">Create DiscoveryActor</text><rect fill="#F1F1F1" height="33.9688" rx="12.5" ry="12.5" style="stroke:#181818;stroke-width:0.5;" width="142.1738" x="201.9111" y="348.2891"/><text fill="#000000" font-family="sans-serif" font-size="12" lengthAdjust="spacing" textLength="122.1738" x="211.9111" y="369.4277">Create ScraperActor</text><rect fill="#F1F1F1" height="33.9688" rx="12.5" ry="12.5" style="stroke:#181818;stroke-width:0.5;" width="217.0684" x="164.4639" y="402.2578"/><text fill="#000000" font-family="sans-serif" font-size="12" lengthAdjust="spacing" textLength="197.0684" x="174.4639" y="423.3965">Send DescubrirDocumentos msg</text><rect fill="#555555" height="6" rx="2.5" ry="2.5" style="stroke:#555555;stroke-width:1;" width="525.9961" x="11" y="456.2266"/><path d="M155.0859,486.6445 L155.0859,495.2109 L135.0859,499.2109 L155.0859,503.2109 L155.0859,511.7773 A0,0 0 0 0 155.0859,511.7773 L247.1353,511.7773 A0,0 0 0 0 247.1353,511.7773 L247.1353,496.6445 L237.1353,486.6445 L155.0859,486.6445 A0,0 0 0 0 155.0859,486.6445" fill="#FEFFDD" style="stroke:#181818;stroke-width:0.5;"/><path d="M237.1353,486.6445 L237.1353,496.6445 L247.1353,496.6445 L237.1353,486.6445" fill="#FEFFDD" style="stroke:#181818;stroke-width:0.5;"/><text fill="#000000" font-family="sans-serif" font-size="13" lengthAdjust="spacing" textLength="71.0493" x="161.0859" y="503.7114">Finds URLs</text><rect fill="#F1F1F1" height="33.9688" rx="12.5" ry="12.5" style="stroke:#181818;stroke-width:0.5;" width="112.0859" x="23" y="482.2266"/><text fill="#000000" font-family="sans-serif" font-size="12" lengthAdjust="spacing" textLength="92.0859" x="33" y="503.3652">Discovery Loop</text><path d="M394.3716,486.6445 L394.3716,495.2109 L374.3716,499.2109 L394.3716,503.2109 L394.3716,511.7773 A0,0 0 0 0 394.3716,511.7773 L522.9961,511.7773 A0,0 0 0 0 522.9961,511.7773 L522.9961,496.6445 L512.9961,486.6445 L394.3716,486.6445 A0,0 0 0 0 394.3716,486.6445" fill="#FEFFDD" style="stroke:#181818;stroke-width:0.5;"/><path d="M512.9961,486.6445 L512.9961,496.6445 L522.9961,496.6445 L512.9961,486.6445" fill="#FEFFDD" style="stroke:#181818;stroke-width:0.5;"/><text fill="#000000" font-family="sans-serif" font-size="13" lengthAdjust="spacing" textLength="107.6245" x="400.3716" y="503.7114">Downloads PDFs</text><rect fill="#F1F1F1" height="33.9688" rx="12.5" ry="12.5" style="stroke:#181818;stroke-width:0.5;" width="99.2363" x="275.1353" y="482.2266"/><text fill="#000000" font-family="sans-serif" font-size="12" lengthAdjust="spacing" textLength="79.2363" x="285.1353" y="503.3652">Scraper Loop</text><rect fill="#555555" height="6" rx="2.5" ry="2.5" style="stroke:#555555;stroke-width:1;" width="525.9961" x="11" y="536.1953"/><rect fill="#F1F1F1" height="33.9688" rx="12.5" ry="12.5" style="stroke:#181818;stroke-width:0.5;" width="140.4688" x="202.7637" y="569.2109"/><text fill="#000000" font-family="sans-serif" font-size="12" lengthAdjust="spacing" textLength="120.4688" x="212.7637" y="590.3496">Monitor Status Loop</text><rect fill="#F1F1F1" height="33.9688" rx="12.5" ry="12.5" style="stroke:#181818;stroke-width:0.5;" width="103.5781" x="221.209" y="678.8901"/><text fill="#000000" font-family="sans-serif" font-size="12" lengthAdjust="spacing" textLength="83.5781" x="231.209" y="700.0288">Print Progress</text><rect fill="#F1F1F1" height="33.9688" rx="12.5" ry="12.5" style="stroke:#181818;stroke-width:0.5;" width="71.0352" x="237.4805" y="741.9565"/><text fill="#000000" font-family="sans-serif" font-size="12" lengthAdjust="spacing" textLength="51.0352" x="247.4805" y="763.0952">Sleep 3s</text><polygon fill="#F1F1F1" points="236.1174,623.1797,309.8787,623.1797,321.8787,635.1797,309.8787,647.1797,236.1174,647.1797,224.1174,635.1797,236.1174,623.1797" style="stroke:#181818;stroke-width:0.5;"/><text fill="#000000" font-family="sans-serif" font-size="11" lengthAdjust="spacing" textLength="19.0083" x="276.998" y="657.3901">yes</text><text fill="#000000" font-family="sans-serif" font-size="11" lengthAdjust="spacing" textLength="73.7612" x="236.1174" y="638.9878">pending &gt; 0?</text><text fill="#000000" font-family="sans-serif" font-size="11" lengthAdjust="spacing" textLength="13.7017" x="210.4158" y="632.5854">no</text><rect fill="#F1F1F1" height="33.9688" rx="12.5" ry="12.5" style="stroke:#181818;stroke-width:0.5;" width="130.9531" x="207.5215" y="817.9253"/><text fill="#000000" font-family="sans-serif" font-size="12" lengthAdjust="spacing" textLength="110.9531" x="217.5215" y="839.064">Shutdown Pipeline</text><polygon fill="#F1F1F1" points="600.2258,103.9688,634.0261,103.9688,646.0261,115.9688,634.0261,127.9688,600.2258,127.9688,588.2258,115.9688,600.2258,103.9688" style="stroke:#181818;stroke-width:0.5;"/><text fill="#000000" font-family="sans-serif" font-size="11" lengthAdjust="spacing" textLength="33.8003" x="600.2258" y="119.7769">status</text><rect fill="#F1F1F1" height="33.9688" rx="12.5" ry="12.5" style="stroke:#181818;stroke-width:0.5;" width="118.5605" x="557.8457" y="147.9688"/><text fill="#000000" font-family="sans-serif" font-size="12" lengthAdjust="spacing" textLength="98.5605" x="567.8457" y="169.1074">List Checkpoints</text><rect fill="#F1F1F1" height="33.9688" rx="12.5" ry="12.5" style="stroke:#181818;stroke-width:0.5;" width="112.4258" x="560.9131" y="214.7422"/><text fill="#000000" font-family="sans-serif" font-size="12" lengthAdjust="spacing" textLength="92.4258" x="570.9131" y="235.8809">Read JSON files</text><rect fill="#F1F1F1" height="33.9688" rx="12.5" ry="12.5" style="stroke:#181818;stroke-width:0.5;" width="120.2598" x="556.9961" y="281.5156"/><text fill="#000000" font-family="sans-serif" font-size="12" lengthAdjust="spacing" textLength="100.2598" x="566.9961" y="302.6543">Print Session IDs</text><polygon fill="#F1F1F1" points="752.6929,103.9688,794.1685,103.9688,806.1685,115.9688,794.1685,127.9688,752.6929,127.9688,740.6929,115.9688,752.6929,103.9688" style="stroke:#181818;stroke-width:0.5;"/><text fill="#000000" font-family="sans-serif" font-size="11" lengthAdjust="spacing" textLength="41.4756" x="752.6929" y="119.7769">resume</text><text fill="#000000" font-family="sans-serif" font-size="11" lengthAdjust="spacing" textLength="49.9834" x="806.1685" y="113.3745">unknown</text><rect fill="#F1F1F1" height="33.9688" rx="12.5" ry="12.5" style="stroke:#181818;stroke-width:0.5;" width="153.7227" x="696.5693" y="147.9688"/><text fill="#000000" font-family="sans-serif" font-size="12" lengthAdjust="spacing" textLength="133.7227" x="706.5693" y="169.1074">Load Checkpoint JSON</text><rect fill="#F1F1F1" height="33.9688" rx="12.5" ry="12.5" style="stroke:#181818;stroke-width:0.5;" width="172.3496" x="687.2559" y="214.7422"/><text fill="#000000" font-family="sans-serif" font-size="12" lengthAdjust="spacing" textLength="152.3496" x="697.2559" y="235.8809">Restore Session Manager</text><rect fill="#F1F1F1" height="33.9688" rx="12.5" ry="12.5" style="stroke:#181818;stroke-width:0.5;" width="125.1406" x="710.8604" y="281.5156"/><text fill="#000000" font-family="sans-serif" font-size="12" lengthAdjust="spacing" textLength="105.1406" x="720.8604" y="302.6543">Resume Scraping</text><rect fill="#F1F1F1" height="33.9688" rx="12.5" ry="12.5" style="stroke:#181818;stroke-width:0.5;" width="78.9863" x="869.6055" y="458.2422"/><text fill="#000000" font-family="sans-serif" font-size="12" lengthAdjust="spacing" textLength="58.9863" x="879.6055" y="479.3809">Print Help</text><ellipse cx="909.0986" cy="538.2109" fill="none" rx="11" ry="11" style="stroke:#222222;stroke-width:1;"/><ellipse cx="909.0986" cy="538.2109" fill="#222222" rx="6" ry="6" style="stroke:#222222;stroke-width:1;"/><ellipse cx="488.7959" cy="902.894" fill="none" rx="11" ry="11" style="stroke:#222222;stroke-width:1;"/><ellipse cx="488.7959" cy="902.894" fill="#222222" rx="6" ry="6" style="stroke:#222222;stroke-width:1;"/><line style="stroke:#181818;stroke-width:1;" x1="488.7959" x2="488.7959" y1="30" y2="50"/><polygon fill="#181818" points="484.7959,40,488.7959,50,492.7959,40,488.7959,44" style="stroke:#181818;stroke-width:1;"/><line style="stroke:#181818;stroke-width:1;" x1="272.998" x2="272.998" y1="194.7422" y2="227.5469"/><polygon fill="#181818" points="268.998,217.5469,272.998,227.5469,276.998,217.5469,272.998,221.5469" style="stroke:#181818;stroke-width:1;"/><line style="stroke:#181818;stroke-width:1;" x1="272.998" x2="272.998" y1="261.5156" y2="294.3203"/><polygon fill="#181818" points="268.998,284.3203,272.998,294.3203,276.998,284.3203,272.998,288.3203" style="stroke:#181818;stroke-width:1;"/><line style="stroke:#181818;stroke-width:1;" x1="272.998" x2="272.998" y1="328.2891" y2="348.2891"/><polygon fill="#181818" points="268.998,338.2891,272.998,348.2891,276.998,338.2891,272.998,342.2891" style="stroke:#181818;stroke-width:1;"/><line style="stroke:#181818;stroke-width:1;" x1="272.998" x2="272.998" y1="382.2578" y2="402.2578"/><polygon fill="#181818" points="268.998,392.2578,272.998,402.2578,276.998,392.2578,272.998,396.2578" style="stroke:#181818;stroke-width:1;"/><line style="stroke:#181818;stroke-width:1;" x1="79.043" x2="79.043" y1="462.2266" y2="482.2266"/><polygon fill="#181818" points="75.043,472.2266,79.043,482.2266,83.043,472.2266,79.043,476.2266" style="stroke:#181818;stroke-width:1;"/><line style="stroke:#181818;stroke-width:1;" x1="324.7534" x2="324.7534" y1="462.2266" y2="482.2266"/><polygon fill="#181818" points="320.7534,472.2266,324.7534,482.2266,328.7534,472.2266,324.7534,476.2266" style="stroke:#181818;stroke-width:1;"/><line style="stroke:#181818;stroke-width:1;" x1="79.043" x2="79.043" y1="516.1953" y2="536.1953"/><polygon fill="#181818" points="75.043,526.1953,79.043,536.1953,83.043,526.1953,79.043,530.1953" style="stroke:#181818;stroke-width:1;"/><line style="stroke:#181818;stroke-width:1;" x1="324.7534" x2="324.7534" y1="516.1953" y2="536.1953"/><polygon fill="#181818" points="320.7534,526.1953,324.7534,536.1953,328.7534,526.1953,324.7534,530.1953" style="stroke:#181818;stroke-width:1;"/><line style="stroke:#181818;stroke-width:1;" x1="272.998" x2="272.998" y1="436.2266" y2="456.2266"/><polygon fill="#181818" points="268.998,446.2266,272.998,456.2266,276.998,446.2266,272.998,450.2266" style="stroke:#181818;stroke-width:1;"/><line style="stroke:#181818;stroke-width:1;" x1="272.998" x2="272.998" y1="542.1953" y2="569.2109"/><polygon fill="#181818" points="268.998,559.2109,272.998,569.2109,276.998,559.2109,272.998,563.2109" style="stroke:#181818;stroke-width:1;"/><line style="stroke:#181818;stroke-width:1;" x1="272.998" x2="272.998" y1="712.8589" y2="741.9565"/><polygon fill="#181818" points="268.998,731.9565,272.998,741.9565,276.998,731.9565,272.998,735.9565" style="stroke:#181818;stroke-width:1;"/><line style="stroke:#181818;stroke-width:1;" x1="272.998" x2="272.998" y1="647.1797" y2="678.8901"/><polygon fill="#181818" points="268.998,668.8901,272.998,678.8901,276.998,668.8901,272.998,672.8901" style="stroke:#181818;stroke-width:1;"/><line style="stroke:#181818;stroke-width:1;" x1="272.998" x2="272.998" y1="775.9253" y2="785.9253"/><line style="stroke:#181818;stroke-width:1;" x1="272.998" x2="336.7871" y1="785.9253" y2="785.9253"/><polygon fill="#181818" points="332.7871,721.9565,336.7871,711.9565,340.7871,721.9565,336.7871,717.9565" style="stroke:#181818;stroke-width:1;"/><line style="stroke:#181818;stroke-width:1;" x1="336.7871" x2="336.7871" y1="635.1797" y2="785.9253"/><line style="stroke:#181818;stroke-width:1;" x1="336.7871" x2="321.8787" y1="635.1797" y2="635.1797"/><polygon fill="#181818" points="331.8787,631.1797,321.8787,635.1797,331.8787,639.1797,327.8787,635.1797" style="stroke:#181818;stroke-width:1;"/><line style="stroke:#181818;stroke-width:1;" x1="224.1174" x2="209.209" y1="635.1797" y2="635.1797"/><polygon fill="#181818" points="205.209,707.9565,209.209,717.9565,213.209,707.9565,209.209,711.9565" style="stroke:#181818;stroke-width:1;"/><line style="stroke:#181818;stroke-width:1;" x1="209.209" x2="209.209" y1="635.1797" y2="797.9253"/><line style="stroke:#181818;stroke-width:1;" x1="209.209" x2="272.998" y1="797.9253" y2="797.9253"/><line style="stroke:#181818;stroke-width:1;" x1="272.998" x2="272.998" y1="797.9253" y2="817.9253"/><polygon fill="#181818" points="268.998,807.9253,272.998,817.9253,276.998,807.9253,272.998,811.9253" style="stroke:#181818;stroke-width:1;"/><line style="stroke:#181818;stroke-width:1;" x1="272.998" x2="272.998" y1="603.1797" y2="623.1797"/><polygon fill="#181818" points="268.998,613.1797,272.998,623.1797,276.998,613.1797,272.998,617.1797" style="stroke:#181818;stroke-width:1;"/><line style="stroke:#181818;stroke-width:1;" x1="617.126" x2="617.126" y1="181.9375" y2="214.7422"/><polygon fill="#181818" points="613.126,204.7422,617.126,214.7422,621.126,204.7422,617.126,208.7422" style="stroke:#181818;stroke-width:1;"/><line style="stroke:#181818;stroke-width:1;" x1="617.126" x2="617.126" y1="248.7109" y2="281.5156"/><polygon fill="#181818" points="613.126,271.5156,617.126,281.5156,621.126,271.5156,617.126,275.5156" style="stroke:#181818;stroke-width:1;"/><line style="stroke:#181818;stroke-width:1;" x1="773.4307" x2="773.4307" y1="181.9375" y2="214.7422"/><polygon fill="#181818" points="769.4307,204.7422,773.4307,214.7422,777.4307,204.7422,773.4307,208.7422" style="stroke:#181818;stroke-width:1;"/><line style="stroke:#181818;stroke-width:1;" x1="773.4307" x2="773.4307" y1="248.7109" y2="281.5156"/><polygon fill="#181818" points="769.4307,271.5156,773.4307,281.5156,777.4307,271.5156,773.4307,275.5156" style="stroke:#181818;stroke-width:1;"/><line style="stroke:#181818;stroke-width:1;" x1="909.0986" x2="909.0986" y1="492.2109" y2="527.2109"/><polygon fill="#181818" points="905.0986,517.2109,909.0986,527.2109,913.0986,517.2109,909.0986,521.2109" style="stroke:#181818;stroke-width:1;"/><line style="stroke:#181818;stroke-width:1;" x1="272.998" x2="272.998" y1="127.9688" y2="160.7734"/><polygon fill="#181818" points="268.998,150.7734,272.998,160.7734,276.998,150.7734,272.998,154.7734" style="stroke:#181818;stroke-width:1;"/><line style="stroke:#181818;stroke-width:1;" x1="272.998" x2="272.998" y1="851.894" y2="871.894"/><polygon fill="#181818" points="268.998,861.894,272.998,871.894,276.998,861.894,272.998,865.894" style="stroke:#181818;stroke-width:1;"/><line style="stroke:#181818;stroke-width:1;" x1="617.126" x2="617.126" y1="127.9688" y2="147.9688"/><polygon fill="#181818" points="613.126,137.9688,617.126,147.9688,621.126,137.9688,617.126,141.9688" style="stroke:#181818;stroke-width:1;"/><line style="stroke:#181818;stroke-width:1;" x1="617.126" x2="617.126" y1="315.4844" y2="871.894"/><polygon fill="#181818" points="613.126,861.894,617.126,871.894,621.126,861.894,617.126,865.894" style="stroke:#181818;stroke-width:1;"/><line style="stroke:#181818;stroke-width:1;" x1="773.4307" x2="773.4307" y1="127.9688" y2="147.9688"/><polygon fill="#181818" points="769.4307,137.9688,773.4307,147.9688,777.4307,137.9688,773.4307,141.9688" style="stroke:#181818;stroke-width:1;"/><line style="stroke:#181818;stroke-width:1;" x1="773.4307" x2="773.4307" y1="315.4844" y2="871.894"/><polygon fill="#181818" points="769.4307,861.894,773.4307,871.894,777.4307,861.894,773.4307,865.894" style="stroke:#181818;stroke-width:1;"/><line style="stroke:#181818;stroke-width:1;" x1="316.1853" x2="588.2258" y1="115.9688" y2="115.9688"/><polygon fill="#181818" points="578.2258,111.9688,588.2258,115.9688,578.2258,119.9688,582.2258,115.9688" style="stroke:#181818;stroke-width:1;"/><line style="stroke:#181818;stroke-width:1;" x1="646.0261" x2="740.6929" y1="115.9688" y2="115.9688"/><polygon fill="#181818" points="730.6929,111.9688,740.6929,115.9688,730.6929,119.9688,734.6929,115.9688" style="stroke:#181818;stroke-width:1;"/><line style="stroke:#181818;stroke-width:1;" x1="488.7959" x2="488.7959" y1="83.9688" y2="88.9688"/><line style="stroke:#181818;stroke-width:1;" x1="488.7959" x2="272.998" y1="88.9688" y2="88.9688"/><line style="stroke:#181818;stroke-width:1;" x1="272.998" x2="272.998" y1="88.9688" y2="103.9688"/><polygon fill="#181818" points="268.998,93.9688,272.998,103.9688,276.998,93.9688,272.998,97.9688" style="stroke:#181818;stroke-width:1;"/><line style="stroke:#181818;stroke-width:1;" x1="806.1685" x2="909.0986" y1="115.9688" y2="115.9688"/><line style="stroke:#181818;stroke-width:1;" x1="909.0986" x2="909.0986" y1="115.9688" y2="458.2422"/><polygon fill="#181818" points="905.0986,448.2422,909.0986,458.2422,913.0986,448.2422,909.0986,452.2422" style="stroke:#181818;stroke-width:1;"/><line style="stroke:#181818;stroke-width:1;" x1="272.998" x2="773.4307" y1="871.894" y2="871.894"/><line style="stroke:#181818;stroke-width:1;" x1="488.7959" x2="488.7959" y1="871.894" y2="891.894"/><polygon fill="#181818" points="484.7959,881.894,488.7959,891.894,492.7959,881.894,488.7959,885.894" style="stroke:#181818;stroke-width:1;"/><!--SRC=[TP5FJuH03CNlV8eUuM9ClEqc6hF4g5cLBF5iHkZ2kD2ITj3ijxVyMLnDFC6qytvzywh1IOXMkvv0YmzwQvsdY-wuZlmUuWsthQFo9e5G8q5SUYtu4oM905QP4qLmKkbwE6u4NK3OC4lfoGMMyt8wAu-tnPzENeZhK9RwqCgHIaXHY_vTlAHSz2rIO8LMg_dEdkLW7xkye67BtAt78h6HnLTrMC6TfrBXTRVLMGQkiaTEuddwFzAKlwXXP_8ilHlaWwzvyk3pYScRRSY32xqkaA_QDmXnPxSzLN0DbvQWLuYFgCaqDnDF0JBXIb1rFPjf43ku6e-cdJ74oIcMkW-bMOBCTzXumZ4BR1I7PUbeObpDrck0JOt5eMERCoreXww4n_pb6VR6dMgJZTmiU2PuIFKNqQnPy1FHKZWZZfoPgfO0BemdHwv2EVLCFstOWbZO4FTq87j8ykFX7finEwDrqH3SFeg6_sy0]--></g></svg>