<svg xmlns="http://www.w3.org/2000/svg" xmlns:xlink="http://www.w3.org/1999/xlink" contentStyleType="text/css" data-diagram-type="DESCRIPTION" height="328px" preserveAspectRatio="none" style="width:510px;height:328px;background:#FFFFFF;" version="1.1" viewBox="0 0 510 328" width="510px" zoomAndPan="magnify"><defs/><g><!--cluster Host Server--><g class="cluster" data-entity="Host Server" data-source-line="1" data-uid="ent0002" id="cluster_Host Server"><polygon fill="none" points="16,16,26,6,493,6,493,301.59,483,311.59,16,311.59,16,16" style="stroke:#181818;stroke-width:1;"/><line style="stroke:#181818;stroke-width:1;" x1="483" x2="493" y1="16" y2="6"/><line style="stroke:#181818;stroke-width:1;" x1="16" x2="483" y1="16" y2="16"/><line style="stroke:#181818;stroke-width:1;" x1="483" x2="483" y1="16" y2="311.59"/><text fill="#000000" font-family="sans-serif" font-size="14" font-weight="bold" lengthAdjust="spacing" textLength="93.2422" x="203.8789" y="31.9951">Host Server</text></g><!--cluster Container: legal-scraper--><g class="cluster" data-entity="Container. legal-scraper" data-source-line="4" data-uid="ent0004" id="cluster_Container. legal-scraper"><polygon fill="none" points="202,64,212,54,469,54,469,277.59,459,287.59,202,287.59,202,64" style="stroke:#181818;stroke-width:1;"/><line style="stroke:#181818;stroke-width:1;" x1="459" x2="469" y1="64" y2="54"/><line style="stroke:#181818;stroke-width:1;" x1="202" x2="459" y1="64" y2="64"/><line style="stroke:#181818;stroke-width:1;" x1="459" x2="459" y1="64" y2="287.59"/><text fill="#000000" font-family="sans-serif" font-size="14" font-weight="bold" lengthAdjust="spacing" textLength="191.4131" x="235.7935" y="79.9951">Container: legal-scraper</text></g><!--entity Docker Daemon--><g class="entity" data-entity="Docker Daemon" data-source-line="2" data-uid="ent0003" id="entity_Docker Daemon"><rect fill="#F1F1F1" height="46.2969" rx="2.5" ry="2.5" style="stroke:#181818;stroke-width:0.5;" width="153.0186" x="32.49" y="94"/><rect fill="#F1F1F1" height="10" style="stroke:#181818;stroke-width:0.5;" width="15" x="165.5086" y="99"/><rect fill="#F1F1F1" height="2" style="stroke:#181818;stroke-width:0.5;" width="4" x="163.5086" y="101"/><rect fill="#F1F1F1" height="2" style="stroke:#181818;stroke-width:0.5;" width="4" x="163.5086" y="105"/><text fill="#000000" font-family="sans-serif" font-size="14" lengthAdjust="spacing" textLength="113.0186" x="47.49" y="126.9951">Docker Daemon</text></g><!--entity Python 3.10 Runtime--><g class="entity" data-entity="Python 3.10 Runtime" data-source-line="5" data-uid="ent0005" id="entity_Python 3.10 Runtime"><rect fill="#F1F1F1" height="46.2969" rx="2.5" ry="2.5" style="stroke:#181818;stroke-width:0.5;" width="187.7041" x="242.15" y="94"/><rect fill="#F1F1F1" height="10" style="stroke:#181818;stroke-width:0.5;" width="15" x="409.8541" y="99"/><rect fill="#F1F1F1" height="2" style="stroke:#181818;stroke-width:0.5;" width="4" x="407.8541" y="101"/><rect fill="#F1F1F1" height="2" style="stroke:#181818;stroke-width:0.5;" width="4" x="407.8541" y="105"/><text fill="#000000" font-family="sans-serif" font-size="14" lengthAdjust="spacing" textLength="147.7041" x="257.15" y="126.9951">Python 3.10 Runtime</text></g><!--entity Data--><g class="entity" data-entity="Data" data-source-line="6" data-uid="ent0006" id="entity_Data"><path d="M289.84,217.29 L330.84,217.29 A3.75,3.75 0 0 1 333.34,219.79 L340.34,238.29 L382.1603,238.29 A2.5,2.5 0 0 1 384.6603,240.79 L384.6603,269.0869 A2.5,2.5 0 0 1 382.1603,271.5869 L289.84,271.5869 A2.5,2.5 0 0 1 287.34,269.0869 L287.34,219.79 A2.5,2.5 0 0 1 289.84,217.29" fill="#F1F1F1" style="stroke:#181818;stroke-width:0.5;"/><line style="stroke:#181818;stroke-width:0.5;" x1="287.34" x2="340.34" y1="238.29" y2="238.29"/><text fill="#000000" font-family="sans-serif" font-size="14" lengthAdjust="spacing" textLength="67.3203" x="297.34" y="258.2851">/app/data</text></g><!--link Python 3.10 Runtime to Data--><g class="link" data-entity-1="Python 3.10 Runtime" data-entity-2="Data" data-source-line="10" data-uid="lnk7" id="link_Python 3.10 Runtime_Data"><path d="M336,140.55 C336,161.94 336,202.7 336,225.38" fill="none" id="Python 3.10 Runtime-to-Data" style="stroke:#181818;stroke-width:1;"/><polygon fill="#181818" points="336,231.38,340,222.38,336,226.38,332,222.38,336,231.38" style="stroke:#181818;stroke-width:1;"/><text fill="#000000" font-family="sans-serif" font-size="13" lengthAdjust="spacing" textLength="72.5347" x="337" y="183.3569">Read/Write</text></g><!--SRC=[ROsn2i9044Jx-uhX-XZ5BeMDAImbAIp4Oicj6ansZyigYEJVFG9smdHlteneOFY3JeQMqukJnyS1dOvHXSNWQ-qUd50JZoe-innPhBsAKI-SAWnyew6OkaJnDm6SZs-xgs2xsgpHFCNwaIyBkUeGygOlASOoa947JVd2AEFPpSxzTL4KkwM52WrJA4-fD_u2]--></g></svg>