<svg xmlns="http://www.w3.org/2000/svg" xmlns:xlink="http://www.w3.org/1999/xlink" contentStyleType="text/css" data-diagram-type="CLASS" height="401px" preserveAspectRatio="none" style="width:275px;height:401px;background:#FFFFFF;" version="1.1" viewBox="0 0 275 401" width="275px" zoomAndPan="magnify"><defs/><g><!--cluster src--><g class="cluster" data-entity="src" data-source-line="2" data-uid="ent0004" id="cluster_src"><path d="M8.5,6 L33.0361,6 A3.75,3.75 0 0 1 35.5361,8.5 L42.5361,28.2969 L265.5,28.2969 A2.5,2.5 0 0 1 268,30.7969 L268,391.58 A2.5,2.5 0 0 1 265.5,394.08 L8.5,394.08 A2.5,2.5 0 0 1 6,391.58 L6,8.5 A2.5,2.5 0 0 1 8.5,6" fill="none" style="stroke:#000000;stroke-width:1.5;"/><line style="stroke:#000000;stroke-width:1.5;" x1="6" x2="42.5361" y1="28.2969" y2="28.2969"/><text fill="#000000" font-family="sans-serif" font-size="14" font-weight="bold" lengthAdjust="spacing" textLength="23.5361" x="10" y="20.9951">src</text></g><!--cluster domain--><g class="cluster" data-entity="domain" data-source-line="1" data-uid="ent0002" id="cluster_domain"><path d="M32.5,49 L91.9404,49 A3.75,3.75 0 0 1 94.4404,51.5 L101.4404,71.2969 L241.5,71.2969 A2.5,2.5 0 0 1 244,73.7969 L244,367.58 A2.5,2.5 0 0 1 241.5,370.08 L32.5,370.08 A2.5,2.5 0 0 1 30,367.58 L30,51.5 A2.5,2.5 0 0 1 32.5,49" fill="none" style="stroke:#000000;stroke-width:1.5;"/><line style="stroke:#000000;stroke-width:1.5;" x1="30" x2="101.4404" y1="71.2969" y2="71.2969"/><text fill="#000000" font-family="sans-serif" font-size="14" font-weight="bold" lengthAdjust="spacing" textLength="58.4404" x="34" y="63.9951">domain</text></g><!--class FederalLaw--><g class="entity" data-entity="FederalLaw" data-source-line="2" data-uid="ent0003" id="entity_FederalLaw"><rect fill="#F1F1F1" height="113.1875" rx="2.5" ry="2.5" style="stroke:#181818;stroke-width:0.5;" width="182.8232" x="45.59" y="84"/><ellipse cx="92.6418" cy="100" fill="#ADD1B2" rx="11" ry="11" style="stroke:#181818;stroke-width:1;"/><path d="M95.6105,105.6406 Q95.0324,105.9375 94.3918,106.0781 Q93.7511,106.2344 93.048,106.2344 Q90.548,106.2344 89.2199,104.5938 Q87.9074,102.9375 87.9074,99.8125 Q87.9074,96.6875 89.2199,95.0313 Q90.548,93.375 93.048,93.375 Q93.7511,93.375 94.3918,93.5313 Q95.048,93.6875 95.6105,93.9844 L95.6105,96.7031 Q94.9855,96.125 94.3918,95.8594 Q93.798,95.5781 93.173,95.5781 Q91.8293,95.5781 91.1418,96.6563 Q90.4543,97.7188 90.4543,99.8125 Q90.4543,101.9063 91.1418,102.9844 Q91.8293,104.0469 93.173,104.0469 Q93.798,104.0469 94.3918,103.7813 Q94.9855,103.5 95.6105,102.9219 L95.6105,105.6406 Z " fill="#000000"/><text fill="#000000" font-family="sans-serif" font-size="14" lengthAdjust="spacing" textLength="80.2197" x="113.1418" y="104.8467">FederalLaw</text><line style="stroke:#181818;stroke-width:0.5;" x1="46.59" x2="227.4132" y1="116" y2="116"/><ellipse cx="56.59" cy="129.6484" fill="none" rx="3" ry="3" style="stroke:#038048;stroke-width:1;"/><text fill="#000000" font-family="sans-serif" font-size="14" lengthAdjust="spacing" textLength="55.0771" x="65.59" y="132.9951">title: str</text><ellipse cx="56.59" cy="145.9453" fill="none" rx="3" ry="3" style="stroke:#038048;stroke-width:1;"/><text fill="#000000" font-family="sans-serif" font-size="14" lengthAdjust="spacing" textLength="156.8232" x="65.59" y="149.292">publication_date: date</text><ellipse cx="56.59" cy="162.2422" fill="none" rx="3" ry="3" style="stroke:#038048;stroke-width:1;"/><text fill="#000000" font-family="sans-serif" font-size="14" lengthAdjust="spacing" textLength="104.6992" x="65.59" y="165.5889">jurisdiction: str</text><ellipse cx="56.59" cy="178.5391" fill="none" rx="3" ry="3" style="stroke:#038048;stroke-width:1;"/><text fill="#000000" font-family="sans-serif" font-size="14" lengthAdjust="spacing" textLength="140.6836" x="65.59" y="181.8857">articles: List[Article]</text><line style="stroke:#181818;stroke-width:0.5;" x1="46.59" x2="227.4132" y1="189.1875" y2="189.1875"/></g><!--class Article--><g class="entity" data-entity="Article" data-source-line="9" data-uid="ent0005" id="entity_Article"><rect fill="#F1F1F1" height="96.8906" rx="2.5" ry="2.5" style="stroke:#181818;stroke-width:0.5;" width="116.5352" x="78.73" y="257.19"/><ellipse cx="111.5604" cy="273.19" fill="#ADD1B2" rx="11" ry="11" style="stroke:#181818;stroke-width:1;"/><path d="M114.5291,278.8306 Q113.951,279.1275 113.3104,279.2681 Q112.6697,279.4244 111.9666,279.4244 Q109.4666,279.4244 108.1385,277.7838 Q106.826,276.1275 106.826,273.0025 Q106.826,269.8775 108.1385,268.2213 Q109.4666,266.565 111.9666,266.565 Q112.6697,266.565 113.3104,266.7213 Q113.9666,266.8775 114.5291,267.1744 L114.5291,269.8931 Q113.9041,269.315 113.3104,269.0494 Q112.7166,268.7681 112.0916,268.7681 Q110.7479,268.7681 110.0604,269.8463 Q109.3729,270.9088 109.3729,273.0025 Q109.3729,275.0963 110.0604,276.1744 Q110.7479,277.2369 112.0916,277.2369 Q112.7166,277.2369 113.3104,276.9713 Q113.9041,276.69 114.5291,276.1119 L114.5291,278.8306 Z " fill="#000000"/><text fill="#000000" font-family="sans-serif" font-size="14" lengthAdjust="spacing" textLength="44.9121" x="129.5227" y="278.0367">Article</text><line style="stroke:#181818;stroke-width:0.5;" x1="79.73" x2="194.2652" y1="289.19" y2="289.19"/><ellipse cx="89.73" cy="302.8384" fill="none" rx="3" ry="3" style="stroke:#038048;stroke-width:1;"/><text fill="#000000" font-family="sans-serif" font-size="14" lengthAdjust="spacing" textLength="90.5352" x="98.73" y="306.1851">identifier: str</text><ellipse cx="89.73" cy="319.1353" fill="none" rx="3" ry="3" style="stroke:#038048;stroke-width:1;"/><text fill="#000000" font-family="sans-serif" font-size="14" lengthAdjust="spacing" textLength="81.3066" x="98.73" y="322.482">content: str</text><ellipse cx="89.73" cy="335.4322" fill="none" rx="3" ry="3" style="stroke:#038048;stroke-width:1;"/><text fill="#000000" font-family="sans-serif" font-size="14" lengthAdjust="spacing" textLength="64.9961" x="98.73" y="338.7789">order: int</text><line style="stroke:#181818;stroke-width:0.5;" x1="79.73" x2="194.2652" y1="346.0806" y2="346.0806"/></g><!--reverse link FederalLaw to Article--><g class="link" data-entity-1="FederalLaw" data-entity-2="Article" data-source-line="15" data-uid="lnk6" id="link_FederalLaw_Article"><path codeLine="15" d="M137,209.25 C137,228.62 137,238.17 137,256.84" fill="none" id="FederalLaw-backto-Article" style="stroke:#181818;stroke-width:1;"/><polygon fill="#181818" points="137,197.25,133,203.25,137,209.25,141,203.25,137,197.25" style="stroke:#181818;stroke-width:1;"/><text fill="#000000" font-family="sans-serif" font-size="13" lengthAdjust="spacing" textLength="8.271" x="128.5288" y="217.144">1</text><text fill="#000000" font-family="sans-serif" font-size="13" lengthAdjust="spacing" textLength="23.0356" x="112.3857" y="245.9997">0..*</text></g><!--SRC=[JOyn3i8m34NtdiBAMDGArcuiJBq1GiWa1Xb2KZck653lJWe5CjYItxV_bmUqDxmGc2IsTV6E70myAm3hCINOaID1t-FZ3G5MeAoUEaWg2nZ6asUBoZ4S7MhMvhw8rr4uERQpMXwXA5jFgOEUa-wtd_6GrIdNBt_Xlt1s59JFJ5AQsHWqyn95SVCE1_rR5i-OZO6wQS2isxOstvXgUW40]--></g></svg>