<svg xmlns="http://www.w3.org/2000/svg" xmlns:xlink="http://www.w3.org/1999/xlink" contentStyleType="text/css" data-diagram-type="JSON" height="162px" preserveAspectRatio="none" style="width:869px;height:162px;background:#FFFFFF;" version="1.1" viewBox="0 0 869 162" width="869px" zoomAndPan="magnify"><defs/><g><rect fill="#F1F1F1" height="81.1875" rx="5" ry="5" style="stroke:#F1F1F1;stroke-width:1.5;" width="342.875" x="10" y="10"/><text fill="#000000" font-family="sans-serif" font-size="14" font-weight="bold" lengthAdjust="spacing" textLength="32.4775" x="15" y="24.9951">title</text><text fill="#000000" font-family="sans-serif" font-size="14" lengthAdjust="spacing" textLength="191.7891" x="156.0859" y="24.9951">LEY FEDERAL DEL TRABAJO</text><line style="stroke:#000000;stroke-width:1;" x1="151.0859" x2="151.0859" y1="10" y2="30.2969"/><line style="stroke:#000000;stroke-width:1;" x1="10" x2="352.875" y1="30.2969" y2="30.2969"/><text fill="#000000" font-family="sans-serif" font-size="14" font-weight="bold" lengthAdjust="spacing" textLength="131.0859" x="15" y="45.292">publication_date</text><text fill="#000000" font-family="sans-serif" font-size="14" lengthAdjust="spacing" textLength="81.3613" x="156.0859" y="45.292">2021-03-01</text><line style="stroke:#000000;stroke-width:1;" x1="151.0859" x2="151.0859" y1="30.2969" y2="50.5938"/><line style="stroke:#000000;stroke-width:1;" x1="10" x2="352.875" y1="50.5938" y2="50.5938"/><text fill="#000000" font-family="sans-serif" font-size="14" font-weight="bold" lengthAdjust="spacing" textLength="88.9971" x="15" y="65.5889">jurisdiction</text><text fill="#000000" font-family="sans-serif" font-size="14" lengthAdjust="spacing" textLength="63.6289" x="156.0859" y="65.5889">FEDERAL</text><line style="stroke:#000000;stroke-width:1;" x1="151.0859" x2="151.0859" y1="50.5938" y2="70.8906"/><rect fill="#CCFF02" height="20.2969" rx="2" ry="2" style="stroke:#CCFF02;stroke-width:1;" width="340.875" x="11.5" y="70.8906"/><line style="stroke:#000000;stroke-width:1;" x1="10" x2="352.875" y1="70.8906" y2="70.8906"/><text fill="#000000" font-family="sans-serif" font-size="14" font-weight="bold" lengthAdjust="spacing" textLength="58.7686" x="15" y="85.8857">articles</text><text fill="#000000" font-family="sans-serif" font-size="14" lengthAdjust="spacing" textLength="13.3506" x="156.0859" y="85.8857">&#160;&#160;&#160;</text><line style="stroke:#000000;stroke-width:1;" x1="151.0859" x2="151.0859" y1="70.8906" y2="91.1875"/><rect fill="none" height="81.1875" rx="5" ry="5" style="stroke:#000000;stroke-width:1.5;" width="342.875" x="10" y="10"/><rect fill="#F1F1F1" height="40.5938" rx="5" ry="5" style="stroke:#F1F1F1;stroke-width:1.5;" width="23.3506" x="390" y="60.0938"/><text fill="#000000" font-family="sans-serif" font-size="14" lengthAdjust="spacing" textLength="13.3506" x="395" y="75.0889">&#160;&#160;&#160;</text><line style="stroke:#000000;stroke-width:1;" x1="390" x2="413.3506" y1="80.3906" y2="80.3906"/><text fill="#000000" font-family="sans-serif" font-size="14" lengthAdjust="spacing" textLength="13.3506" x="395" y="95.3857">&#160;&#160;&#160;</text><rect fill="none" height="40.5938" rx="5" ry="5" style="stroke:#000000;stroke-width:1.5;" width="23.3506" x="390" y="60.0938"/><rect fill="#F1F1F1" height="60.8906" rx="5" ry="5" style="stroke:#F1F1F1;stroke-width:1.5;" width="407.9668" x="450" y="11.0938"/><text fill="#000000" font-family="sans-serif" font-size="14" font-weight="bold" lengthAdjust="spacing" textLength="73.0625" x="455" y="26.0889">identifier</text><text fill="#000000" font-family="sans-serif" font-size="14" lengthAdjust="spacing" textLength="67.0947" x="538.0625" y="26.0889">Articulo 1</text><line style="stroke:#000000;stroke-width:1;" x1="533.0625" x2="533.0625" y1="11.0938" y2="31.3906"/><line style="stroke:#000000;stroke-width:1;" x1="450" x2="857.9668" y1="31.3906" y2="31.3906"/><text fill="#000000" font-family="sans-serif" font-size="14" font-weight="bold" lengthAdjust="spacing" textLength="60.7305" x="455" y="46.3857">content</text><text fill="#000000" font-family="sans-serif" font-size="14" lengthAdjust="spacing" textLength="314.9043" x="538.0625" y="46.3857">La presente Ley es de observancia general...</text><line style="stroke:#000000;stroke-width:1;" x1="533.0625" x2="533.0625" y1="31.3906" y2="51.6875"/><line style="stroke:#000000;stroke-width:1;" x1="450" x2="857.9668" y1="51.6875" y2="51.6875"/><text fill="#000000" font-family="sans-serif" font-size="14" font-weight="bold" lengthAdjust="spacing" textLength="42.9434" x="455" y="66.6826">order</text><text fill="#000000" font-family="sans-serif" font-size="14" lengthAdjust="spacing" textLength="8.9072" x="538.0625" y="66.6826">1</text><line style="stroke:#000000;stroke-width:1;" x1="533.0625" x2="533.0625" y1="51.6875" y2="71.9844"/><rect fill="none" height="60.8906" rx="5" ry="5" style="stroke:#000000;stroke-width:1.5;" width="407.9668" x="450" y="11.0938"/><rect fill="#F1F1F1" height="60.8906" rx="5" ry="5" style="stroke:#F1F1F1;stroke-width:1.5;" width="337.9941" x="485" y="90.0938"/><text fill="#000000" font-family="sans-serif" font-size="14" font-weight="bold" lengthAdjust="spacing" textLength="73.0625" x="490" y="105.0889">identifier</text><text fill="#000000" font-family="sans-serif" font-size="14" lengthAdjust="spacing" textLength="67.0947" x="573.0625" y="105.0889">Articulo 2</text><line style="stroke:#000000;stroke-width:1;" x1="568.0625" x2="568.0625" y1="90.0938" y2="110.3906"/><line style="stroke:#000000;stroke-width:1;" x1="485" x2="822.9941" y1="110.3906" y2="110.3906"/><text fill="#000000" font-family="sans-serif" font-size="14" font-weight="bold" lengthAdjust="spacing" textLength="60.7305" x="490" y="125.3857">content</text><text fill="#000000" font-family="sans-serif" font-size="14" lengthAdjust="spacing" textLength="244.9316" x="573.0625" y="125.3857">Las normas del trabajo tienden a...</text><line style="stroke:#000000;stroke-width:1;" x1="568.0625" x2="568.0625" y1="110.3906" y2="130.6875"/><line style="stroke:#000000;stroke-width:1;" x1="485" x2="822.9941" y1="130.6875" y2="130.6875"/><text fill="#000000" font-family="sans-serif" font-size="14" font-weight="bold" lengthAdjust="spacing" textLength="42.9434" x="490" y="145.6826">order</text><text fill="#000000" font-family="sans-serif" font-size="14" lengthAdjust="spacing" textLength="8.9072" x="573.0625" y="145.6826">2</text><line style="stroke:#000000;stroke-width:1;" x1="568.0625" x2="568.0625" y1="130.6875" y2="150.9844"/><rect fill="none" height="60.8906" rx="5" ry="5" style="stroke:#000000;stroke-width:1.5;" width="337.9941" x="485" y="90.0938"/><path d="M401,70.5938 L414,70.5938 C423.3363,70.5938 432.8625,70.3739 442.4749,69.9724" fill="none" style="stroke:#000000;stroke-width:1;stroke-dasharray:3,3;"/><path d="M442.6189,73.0626 L444.7925,69.8644 L442.3308,66.8823 L450.2003,69.6123 L442.6189,73.0626" fill="#000000"/><ellipse cx="401" cy="70.5938" fill="#000000" rx="3" ry="3" style="stroke:#000000;stroke-width:1;"/><path d="M401,90.5938 L414,90.5938 C434.7105,90.5938 456.3509,91.7119 477.7902,93.5164" fill="none" style="stroke:#000000;stroke-width:1;stroke-dasharray:3,3;"/><path d="M477.5237,96.5457 L480.0621,93.7163 L478.0567,90.4872 L485.3633,94.1827 L477.5237,96.5457" fill="#000000"/><ellipse cx="401" cy="90.5938" fill="#000000" rx="3" ry="3" style="stroke:#000000;stroke-width:1;"/><path d="M341,80.5938 L354,80.5938 C363.399,80.5938 373.8552,80.5938 382.5144,80.5938" fill="none" style="stroke:#000000;stroke-width:1;stroke-dasharray:3,3;"/><path d="M382.5144,83.6571 L384.8119,80.5938 L382.5144,77.5304 L390.1727,80.5938 L382.5144,83.6571" fill="#000000"/><ellipse cx="341" cy="80.5938" fill="#000000" rx="3" ry="3" style="stroke:#000000;stroke-width:1;"/><!--SRC=[ZL5TQzj047o_Np6eBmd4Gb9JqkefRgm4ZDm6rp6KKifAkYXdpdVXFWGXvBzt9QNjImjzk8NTcPtPtRlqWLmuU6l4cmVLFsX-0GdNLAkbJyIp09AWWfP9YQIklkAwMbNRPOrLLMEtNNvShZydPoFhCJPQjHIKDJyw2bD3aHNv8dkxoFAPSuXE-Kwr8sd4NyLcyBThYM-S0yzJP4HrqWHrhwGRcvOZBsgBMNHYjDO4van34XwTz9n9rF89qgEJi8sNRY3JAa8lZNIaqpJz8s1TDwddK-7bxBy6AFunW8UnxaYZiKPmrD318YXfM0RqLzzYzkNuNRo8IwPElo9kDPbmjwanIEVvQiXJFkgxDCzETb7YansGdIE_A8kiFF-0kzqLHlnKdDpSrl0skbQYKpuurSJnxATYJGDX6tcXeonnuuZqVlEhWCeCobbpv6N4UhyfyIKstCqVYlr6hEGzHHsOrTfEcRvan-l5Ur6JwIFrh6UYrkBAiffxchEV]--></g></svg>