<svg xmlns="http://www.w3.org/2000/svg" xmlns:xlink="http://www.w3.org/1999/xlink" contentStyleType="text/css" data-diagram-type="NWDIAG" height="387px" preserveAspectRatio="none" style="width:504px;height:387px;background:#FFFFFF;" version="1.1" viewBox="0 0 504 387" width="504px" zoomAndPan="magnify"><defs/><g><text fill="#000000" font-family="sans-serif" font-size="12" lengthAdjust="spacing" textLength="47.8594" x="52.0449" y="16.1387">Internet</text><text fill="#000000" font-family="sans-serif" font-size="12" lengthAdjust="spacing" textLength="53.6602" x="46.2441" y="30.1074">0.0.0.0/0</text><text fill="#000000" font-family="sans-serif" font-size="12" lengthAdjust="spacing" textLength="94.9043" x="5" y="158.0449">Docker_Internal</text><text fill="#000000" font-family="sans-serif" font-size="12" lengthAdjust="spacing" textLength="83.666" x="16.2383" y="172.0137">172.17.0.x/16</text><text fill="#000000" font-family="sans-serif" font-size="12" lengthAdjust="spacing" textLength="3.8145" x="96.0898" y="274.8184">&#160;</text><rect fill="#E7E7E7" height="67.9375" style="stroke:#E7E7E7;stroke-width:1;" width="364.6572" x="121.7373" y="46.4688"/><text fill="#000000" font-family="sans-serif" font-size="12" lengthAdjust="spacing" textLength="99.3867" x="126.7373" y="57.6074">External Targets</text><rect fill="#E2E2F0" height="5" style="stroke:#181818;stroke-width:1;" width="391.4902" x="104.9043" y="16.4688"/><rect fill="#E2E2F0" height="5" style="stroke:#181818;stroke-width:1;" width="141.8457" x="104.9043" y="158.375"/><path d="M177.8271,21.4688 L177.8271,65.4375" fill="none" style="stroke:#181818;stroke-width:1;"/><path d="M315.1426,21.4688 L315.1426,65.4375" fill="none" style="stroke:#181818;stroke-width:1;"/><path d="M439.9648,21.4688 L439.9648,65.4375" fill="none" style="stroke:#181818;stroke-width:1;"/><path d="M173.8271,163.375 L173.8271,199.7773" fill="none" style="stroke:#181818;stroke-width:1;"/><text fill="#000000" font-family="sans-serif" font-size="11" lengthAdjust="spacing" textLength="59.4795" x="144.0874" y="182.8843">172.17.0.2</text><path d="M175.8271,233.7461 L175.8271,275.1484" fill="none" style="stroke:#181818;stroke-width:1;"/><path d="M175.8271,275.1484 L175.8271,310.1484" fill="none" style="stroke:#181818;stroke-width:1;"/><path d="M134.9413,74.1331 C138.4506,67.6481 143.3947,66.6676 148.4904,72.3694 C152.1422,65.2871 156.7557,63.6947 162.6211,70.04 C166.067,62.1945 171.186,60.3403 177.3388,67.36 C183.1371,61.82 188.6078,61.3349 191.6963,70.0829 C195.7842,63.5709 202.0259,64.9455 205.0294,71.2141 C209.9162,65.4661 214.6647,67.8189 217.0066,73.8106 C225.2631,76.5495 227.4708,81.7516 221.9288,88.9707 C226.5292,95.3417 225.4136,99.6671 217.7534,102.1555 C214.7092,108.4673 208.5914,110.5872 204.115,103.6273 C200.1585,110.3266 193.2008,110.4912 190.0191,102.865 C186.1278,110.1159 180.0044,110.0718 175.8882,103.0883 C172.4422,109.6068 167.9825,109.5479 163.8793,103.7281 C159.2513,111.0364 152.4023,110.4598 148.9916,102.5382 C144.638,108.8026 140.4329,107.7725 136.8327,101.7903 C129.8468,99.9032 128.9869,95.1525 132.5627,89.5738 C125.3011,83.1141 126.2354,78.1331 134.9413,74.1331" fill="#F1F1F1" style="stroke:#181818;stroke-width:0.5;"/><text fill="#000000" font-family="sans-serif" font-size="12" lengthAdjust="spacing" textLength="68.1797" x="141.7373" y="91.5762">dof.gob.mx</text><path d="M271.446,74.7518 C272.6433,68.8352 276.6907,67.8179 280.9387,71.8372 C285.173,65.018 289.3438,65.5632 293.4584,71.9507 C296.0088,67.0335 298.9255,65.8038 303.4103,69.7882 C306.132,63.6011 309.4478,61.4043 315.2785,66.5252 C320.1295,62.5644 323.6563,63.0438 325.5236,69.4685 C329.1901,65.7327 332.686,65.3493 335.4454,70.4832 C339.6305,65.5925 344.9822,66.866 346.5533,73.0946 C351.2709,68.8036 355.8571,68.1233 358.4871,75.2723 C367.5492,75.1242 369.4008,82.542 365.189,88.9148 C369.7655,96.6457 365.9873,101.9282 357.3823,101.4498 C354.9758,107.9706 350.7457,107.7138 346.2156,103.701 C344.1553,109.4068 340.7674,111.4847 335.6655,106.7847 C333.5898,111.8583 330.414,113.5574 325.6207,109.9175 C323.0131,114.6951 318.3711,115.8393 315.3256,110.3569 C310.7729,116.8782 306.8922,116.1254 302.8353,109.8721 C297.5951,113.8539 293.689,112.5797 291.7143,106.3246 C287.8479,110.3945 285.0236,109.6866 282.4419,104.969 C277.6038,110.1154 271.9899,107.9109 270.0836,101.7615 C264.1407,98.8346 262.71,94.0701 268.314,89.4796 C263.1725,84.5286 262.891,76.7901 271.446,74.7518" fill="#F1F1F1" style="stroke:#181818;stroke-width:0.5;"/><text fill="#000000" font-family="sans-serif" font-size="12" lengthAdjust="spacing" textLength="72.7852" x="276.75" y="91.5762">scjn.gob.mx</text><path d="M402.6147,73.9199 C406.1125,66.7049 410.4009,66.2671 416.2569,71.2914 C419.0878,64.2871 423.2835,64.2333 428.0855,69.3711 C430.6859,63.9702 434.8169,64.0851 438.2996,68.4481 C442.512,63.0553 447.3138,63.8942 450.0038,69.9979 C454.21,64.8758 459.6267,64.8201 461.9585,71.843 C466.7678,66.6491 471.6471,67.4395 474.9717,73.5518 C482.7042,74.5274 487.0125,81.3486 481.7887,88.3091 C487.3464,95.9322 483.3363,102.6547 474.3442,102.8061 C471.8777,109.0194 466.6476,108.4242 463.3921,103.5882 C460.095,109.4317 455.3757,109.8654 451.3182,104.4002 C447.1898,109.8378 443.2217,111.6921 438.6068,104.9061 C434.9619,109.436 430.4474,108.9056 427.4342,104.1463 C423.1815,109.7539 416.7522,109.5551 414.5341,102.1321 C412.4252,107.6513 407.2638,107.5177 403.9233,103.5029 C396.3253,99.5199 395.6904,94.8881 401.5217,88.7229 C394.0465,83.1765 395.8299,78.4134 402.6147,73.9199" fill="#F1F1F1" style="stroke:#181818;stroke-width:0.5;"/><text fill="#000000" font-family="sans-serif" font-size="12" lengthAdjust="spacing" textLength="56.8594" x="409.5352" y="91.5762">unam.mx</text><rect fill="#F1F1F1" height="33.9688" style="stroke:#181818;stroke-width:0.5;" width="111.8457" x="119.9043" y="199.7773"/><text fill="#000000" font-family="sans-serif" font-size="12" lengthAdjust="spacing" textLength="91.8457" x="129.9043" y="220.916">Python Scraper</text><rect fill="#F1F1F1" height="33.9688" style="stroke:#181818;stroke-width:0.5;" width="67.8594" x="141.8975" y="310.1484"/><text fill="#000000" font-family="sans-serif" font-size="12" lengthAdjust="spacing" textLength="47.8594" x="151.8975" y="331.2871">Internet</text><!--SRC=[VP71Qy8m5CRl_IiUEMkr7lHGl4mdp8CA7Rl8A35vgvcQb9SKEuR_-xAiZAhT28GaZz_tlkz5dwNY1Nn601hTsT01dhH3yfVm2C2b9BGMfi26SLY38GkLiCtNYpnJ3c4hqGfIfLD6JvaqRt5XTl6fPZsmUrwY5n17KydND73PRBdg0grur_-J3ykNBh3I_FGNT8bQ-UP6793odvZyU1ypcOpYPEAJreDat8gQ2VB2bC-CTbnf9DXsKIDleUNikxRvS7j_QWHOuod85cIgil5mGptMZSDdJWKwozAhYT_CyNeuhGxtjllztqzEeyiN]--></g></svg>