<svg xmlns="http://www.w3.org/2000/svg" xmlns:xlink="http://www.w3.org/1999/xlink" contentStyleType="text/css" data-diagram-type="ACTIVITY" height="524px" preserveAspectRatio="none" style="width:374px;height:524px;background:#FFFFFF;" version="1.1" viewBox="0 0 374 524" width="374px" zoomAndPan="magnify"><defs/><g><ellipse cx="171.4294" cy="20" fill="#222222" rx="10" ry="10" style="stroke:#222222;stroke-width:1;"/><rect fill="#F1F1F1" height="33.9688" rx="12.5" ry="12.5" style="stroke:#181818;stroke-width:0.5;" width="132.2012" x="105.3289" y="50"/><text fill="#000000" font-family="sans-serif" font-size="12" lengthAdjust="spacing" textLength="112.2012" x="115.3289" y="71.1387">Receive PDF Bytes</text><polygon fill="#F1F1F1" points="102.4727,103.9688,240.3862,103.9688,252.3862,115.9688,240.3862,127.9688,102.4727,127.9688,90.4727,115.9688,102.4727,103.9688" style="stroke:#181818;stroke-width:0.5;"/><text fill="#000000" font-family="sans-serif" font-size="11" lengthAdjust="spacing" textLength="137.9136" x="102.4727" y="119.7769">Extract Text via PyPDF2?</text><text fill="#000000" font-family="sans-serif" font-size="11" lengthAdjust="spacing" textLength="19.0083" x="71.4644" y="113.3745">yes</text><text fill="#000000" font-family="sans-serif" font-size="11" lengthAdjust="spacing" textLength="109.8711" x="252.3862" y="113.3745">no - empty/scanned</text><rect fill="#F1F1F1" height="33.9688" rx="12.5" ry="12.5" style="stroke:#181818;stroke-width:0.5;" width="138.9453" x="11" y="137.9688"/><text fill="#000000" font-family="sans-serif" font-size="12" lengthAdjust="spacing" textLength="118.9453" x="21" y="159.1074">Text Content Found</text><rect fill="#F1F1F1" height="33.9688" rx="12.5" ry="12.5" style="stroke:#181818;stroke-width:0.5;" width="171.5645" x="176.604" y="137.9688"/><text fill="#000000" font-family="sans-serif" font-size="12" lengthAdjust="spacing" textLength="151.5645" x="186.604" y="159.1074">Initialize OCR (Tesseract)</text><rect fill="#F1F1F1" height="33.9688" rx="12.5" ry="12.5" style="stroke:#181818;stroke-width:0.5;" width="158.1523" x="183.3101" y="191.9375"/><text fill="#000000" font-family="sans-serif" font-size="12" lengthAdjust="spacing" textLength="138.1523" x="193.3101" y="213.0762">Convert PDF to Images</text><rect fill="#F1F1F1" height="33.9688" rx="12.5" ry="12.5" style="stroke:#181818;stroke-width:0.5;" width="164.1289" x="180.3218" y="245.9063"/><text fill="#000000" font-family="sans-serif" font-size="12" lengthAdjust="spacing" textLength="144.1289" x="190.3218" y="267.0449">Perform OCR on Images</text><rect fill="#F1F1F1" height="33.9688" rx="12.5" ry="12.5" style="stroke:#181818;stroke-width:0.5;" width="138.9453" x="192.9136" y="299.875"/><text fill="#000000" font-family="sans-serif" font-size="12" lengthAdjust="spacing" textLength="118.9453" x="202.9136" y="321.0137">Text Content Found</text><polygon fill="#F1F1F1" points="171.4294,339.8438,183.4294,351.8438,171.4294,363.8438,159.4294,351.8438,171.4294,339.8438" style="stroke:#181818;stroke-width:0.5;"/><rect fill="#F1F1F1" height="33.9688" rx="12.5" ry="12.5" style="stroke:#181818;stroke-width:0.5;" width="162.0195" x="90.4197" y="383.8438"/><text fill="#000000" font-family="sans-serif" font-size="12" lengthAdjust="spacing" textLength="142.0195" x="100.4197" y="404.9824">Clean &amp; Normalize Text</text><rect fill="#F1F1F1" height="33.9688" rx="12.5" ry="12.5" style="stroke:#181818;stroke-width:0.5;" width="121.9707" x="110.4441" y="437.8125"/><text fill="#000000" font-family="sans-serif" font-size="12" lengthAdjust="spacing" textLength="101.9707" x="120.4441" y="458.9512">Split into Articles</text><ellipse cx="171.4294" cy="502.7813" fill="none" rx="11" ry="11" style="stroke:#222222;stroke-width:1;"/><ellipse cx="171.4294" cy="502.7813" fill="#222222" rx="6" ry="6" style="stroke:#222222;stroke-width:1;"/><line style="stroke:#181818;stroke-width:1;" x1="171.4294" x2="171.4294" y1="30" y2="50"/><polygon fill="#181818" points="167.4294,40,171.4294,50,175.4294,40,171.4294,44" style="stroke:#181818;stroke-width:1;"/><line style="stroke:#181818;stroke-width:1;" x1="262.3862" x2="262.3862" y1="171.9375" y2="191.9375"/><polygon fill="#181818" points="258.3862,181.9375,262.3862,191.9375,266.3862,181.9375,262.3862,185.9375" style="stroke:#181818;stroke-width:1;"/><line style="stroke:#181818;stroke-width:1;" x1="262.3862" x2="262.3862" y1="225.9063" y2="245.9063"/><polygon fill="#181818" points="258.3862,235.9063,262.3862,245.9063,266.3862,235.9063,262.3862,239.9063" style="stroke:#181818;stroke-width:1;"/><line style="stroke:#181818;stroke-width:1;" x1="262.3862" x2="262.3862" y1="279.875" y2="299.875"/><polygon fill="#181818" points="258.3862,289.875,262.3862,299.875,266.3862,289.875,262.3862,293.875" style="stroke:#181818;stroke-width:1;"/><line style="stroke:#181818;stroke-width:1;" x1="90.4727" x2="80.4727" y1="115.9688" y2="115.9688"/><line style="stroke:#181818;stroke-width:1;" x1="80.4727" x2="80.4727" y1="115.9688" y2="137.9688"/><polygon fill="#181818" points="76.4727,127.9688,80.4727,137.9688,84.4727,127.9688,80.4727,131.9688" style="stroke:#181818;stroke-width:1;"/><line style="stroke:#181818;stroke-width:1;" x1="252.3862" x2="262.3862" y1="115.9688" y2="115.9688"/><line style="stroke:#181818;stroke-width:1;" x1="262.3862" x2="262.3862" y1="115.9688" y2="137.9688"/><polygon fill="#181818" points="258.3862,127.9688,262.3862,137.9688,266.3862,127.9688,262.3862,131.9688" style="stroke:#181818;stroke-width:1;"/><line style="stroke:#181818;stroke-width:1;" x1="80.4727" x2="80.4727" y1="171.9375" y2="351.8438"/><line style="stroke:#181818;stroke-width:1;" x1="80.4727" x2="159.4294" y1="351.8438" y2="351.8438"/><polygon fill="#181818" points="149.4294,347.8438,159.4294,351.8438,149.4294,355.8438,153.4294,351.8438" style="stroke:#181818;stroke-width:1;"/><line style="stroke:#181818;stroke-width:1;" x1="262.3862" x2="262.3862" y1="333.8438" y2="351.8438"/><line style="stroke:#181818;stroke-width:1;" x1="262.3862" x2="183.4294" y1="351.8438" y2="351.8438"/><polygon fill="#181818" points="193.4294,347.8438,183.4294,351.8438,193.4294,355.8438,189.4294,351.8438" style="stroke:#181818;stroke-width:1;"/><line style="stroke:#181818;stroke-width:1;" x1="171.4294" x2="171.4294" y1="83.9688" y2="103.9688"/><polygon fill="#181818" points="167.4294,93.9688,171.4294,103.9688,175.4294,93.9688,171.4294,97.9688" style="stroke:#181818;stroke-width:1;"/><line style="stroke:#181818;stroke-width:1;" x1="171.4294" x2="171.4294" y1="363.8438" y2="383.8438"/><polygon fill="#181818" points="167.4294,373.8438,171.4294,383.8438,175.4294,373.8438,171.4294,377.8438" style="stroke:#181818;stroke-width:1;"/><line style="stroke:#181818;stroke-width:1;" x1="171.4294" x2="171.4294" y1="417.8125" y2="437.8125"/><polygon fill="#181818" points="167.4294,427.8125,171.4294,437.8125,175.4294,427.8125,171.4294,431.8125" style="stroke:#181818;stroke-width:1;"/><line style="stroke:#181818;stroke-width:1;" x1="171.4294" x2="171.4294" y1="471.7813" y2="491.7813"/><polygon fill="#181818" points="167.4294,481.7813,171.4294,491.7813,175.4294,481.7813,171.4294,485.7813" style="stroke:#181818;stroke-width:1;"/><!--SRC=[ROwzReCm54PtFyKtHJ1KaJB2KAKqI5aQbEO5BBYqLpBNoBv58KzVcouTCf_lvqIrGKrrfPvu8NJlBTvMfLWR7b6SxXfihxZHNR6mHRUcnE6rX7wJe5WfbWQeDjvuKH95wtzag0svI2Z4umKqpRhkOsz5QDWAPs5bw_X1k3HN53UAaV9LMMUSfXOAkkcentcoNrafaOx2wCEqjRpy9qyTPE3HL8qZAzZX8pN_JdEuDjNdx5Z1aZwEGRbtUIkgdty1]--></g></svg>