<svg xmlns="http://www.w3.org/2000/svg" xmlns:xlink="http://www.w3.org/1999/xlink" contentStyleType="text/css" data-diagram-type="TIMING" height="228px" preserveAspectRatio="none" style="width:212px;height:228px;background:#FFFFFF;" version="1.1" viewBox="0 0 212 228" width="212px" zoomAndPan="magnify"><defs/><g><line style="stroke:#333333;stroke-width:0.5;" x1="10" x2="10" y1="10" y2="198.5938"/><line style="stroke:#333333;stroke-width:0.5;" x1="155.7695" x2="155.7695" y1="10" y2="198.5938"/><line style="stroke:#333333;stroke-width:0.5;stroke-dasharray:3,5;" x1="97.7695" x2="97.7695" y1="10" y2="198.5938"/><line style="stroke:#333333;stroke-width:0.5;stroke-dasharray:3,5;" x1="147.7695" x2="147.7695" y1="10" y2="198.5938"/><line style="stroke:#333333;stroke-width:0.5;" x1="10" x2="155.7695" y1="10" y2="10"/><text fill="#333333" font-family="sans-serif" font-size="14" font-weight="bold" lengthAdjust="spacing" textLength="123.7031" x="15" y="22.9951">Scraper Worker</text><line style="stroke:#333333;stroke-width:0.5;" x1="10" x2="139.7031" y1="27.2969" y2="27.2969"/><line style="stroke:#333333;stroke-width:0.5;" x1="139.7031" x2="149.7031" y1="27.2969" y2="10"/><text fill="#333333" font-family="sans-serif" font-size="12" lengthAdjust="spacing" textLength="21.873" x="15" y="117.4512">Idle</text><text fill="#333333" font-family="sans-serif" font-size="12" lengthAdjust="spacing" textLength="67.8398" x="15" y="97.4512">Requesting</text><text fill="#333333" font-family="sans-serif" font-size="12" lengthAdjust="spacing" textLength="45.8145" x="15" y="77.4512">Waiting</text><text fill="#333333" font-family="sans-serif" font-size="12" lengthAdjust="spacing" textLength="44.332" x="15" y="57.4512">Parsing</text><text fill="#333333" font-family="sans-serif" font-size="12" lengthAdjust="spacing" textLength="82.7695" x="15" y="37.4512">Cooling Down</text><line style="stroke:#006400;stroke-width:2;" x1="97.7695" x2="98.2695" y1="112.2969" y2="112.2969"/><line style="stroke:#006400;stroke-width:2;" x1="98.2695" x2="98.7695" y1="92.2969" y2="92.2969"/><line style="stroke:#006400;stroke-width:2;" x1="98.7695" x2="99.2695" y1="72.2969" y2="72.2969"/><line style="stroke:#006400;stroke-width:2;" x1="99.2695" x2="99.7695" y1="52.2969" y2="52.2969"/><line style="stroke:#006400;stroke-width:2;" x1="99.7695" x2="100.7695" y1="32.2969" y2="32.2969"/><line style="stroke:#006400;stroke-width:2;" x1="100.7695" x2="150.7695" y1="92.2969" y2="92.2969"/><line style="stroke:#006400;stroke-width:2;" x1="98.2695" x2="98.2695" y1="92.2969" y2="112.2969"/><line style="stroke:#006400;stroke-width:2;" x1="98.7695" x2="98.7695" y1="72.2969" y2="92.2969"/><line style="stroke:#006400;stroke-width:2;" x1="99.2695" x2="99.2695" y1="52.2969" y2="72.2969"/><line style="stroke:#006400;stroke-width:2;" x1="99.7695" x2="99.7695" y1="32.2969" y2="52.2969"/><line style="stroke:#006400;stroke-width:2;" x1="100.7695" x2="100.7695" y1="32.2969" y2="92.2969"/><text fill="#333333" font-family="sans-serif" font-size="12" lengthAdjust="spacing" textLength="55.7871" x="102.7695" y="89.4668">Next URL</text><line style="stroke:#333333;stroke-width:0.5;" x1="10" x2="155.7695" y1="124.2969" y2="124.2969"/><text fill="#333333" font-family="sans-serif" font-size="14" font-weight="bold" lengthAdjust="spacing" textLength="108.9922" x="15" y="137.292">Target Server</text><line style="stroke:#333333;stroke-width:0.5;" x1="10" x2="124.9922" y1="141.5938" y2="141.5938"/><line style="stroke:#333333;stroke-width:0.5;" x1="124.9922" x2="134.9922" y1="141.5938" y2="124.2969"/><text fill="#333333" font-family="sans-serif" font-size="12" lengthAdjust="spacing" textLength="21.873" x="28.2168" y="191.748">Idle</text><text fill="#333333" font-family="sans-serif" font-size="12" lengthAdjust="spacing" textLength="64.5527" x="28.2168" y="171.748">Processing</text><text fill="#333333" font-family="sans-serif" font-size="12" lengthAdjust="spacing" textLength="48.7793" x="28.2168" y="151.748">Sending</text><line style="stroke:#006400;stroke-width:2;" x1="97.7695" x2="98.2695" y1="186.5938" y2="186.5938"/><line style="stroke:#006400;stroke-width:2;" x1="98.2695" x2="98.7695" y1="166.5938" y2="166.5938"/><line style="stroke:#006400;stroke-width:2;" x1="98.7695" x2="99.2695" y1="146.5938" y2="146.5938"/><line style="stroke:#006400;stroke-width:2;" x1="99.2695" x2="99.7695" y1="186.5938" y2="186.5938"/><line style="stroke:#006400;stroke-width:2;" x1="99.7695" x2="100.7695" y1="186.5938" y2="186.5938"/><line style="stroke:#006400;stroke-width:2;" x1="100.7695" x2="150.7695" y1="166.5938" y2="166.5938"/><line style="stroke:#006400;stroke-width:2;" x1="98.2695" x2="98.2695" y1="166.5938" y2="186.5938"/><line style="stroke:#006400;stroke-width:2;" x1="98.7695" x2="98.7695" y1="146.5938" y2="166.5938"/><line style="stroke:#006400;stroke-width:2;" x1="99.2695" x2="99.2695" y1="146.5938" y2="186.5938"/><line style="stroke:#006400;stroke-width:2;" x1="99.7695" x2="99.7695" y1="186.5938" y2="186.5938"/><line style="stroke:#006400;stroke-width:2;" x1="100.7695" x2="100.7695" y1="166.5938" y2="186.5938"/><text fill="#333333" font-family="sans-serif" font-size="12" lengthAdjust="spacing" textLength="99.8438" x="100.2695" y="163.7637">HTTP GET /index</text><text fill="#333333" font-family="sans-serif" font-size="12" lengthAdjust="spacing" textLength="44.0332" x="100.7695" y="143.7637">200 OK</text><line style="stroke:#333333;stroke-width:2;" x1="97.7695" x2="97.7695" y1="198.5938" y2="203.5938"/><line style="stroke:#333333;stroke-width:2;" x1="147.7695" x2="147.7695" y1="198.5938" y2="203.5938"/><line style="stroke:#333333;stroke-width:2;" x1="97.7695" x2="147.7695" y1="198.5938" y2="198.5938"/><text fill="#333333" font-family="sans-serif" font-size="11" lengthAdjust="spacing" textLength="6.9985" x="94.2703" y="214.8042">0</text><text fill="#333333" font-family="sans-serif" font-size="11" lengthAdjust="spacing" textLength="20.9956" x="137.2717" y="214.8042">100</text><!--SRC=[RO_B3e9034Nt_Og67n1yBLoHg56ZKG8OroCqP29Xj4Nbynq2CUDZrpRdjBTipdUfqKioLbTYF1c-47kef2-1Uo9LN52D2V6Z1xeIG39L4WQ-tmudFbvrGwK0X3vqEr0BRlAIe3FUBOI1GyHqkvFKkYeSBcAJaOWTuWpNQHhXQfdYG5SvDTOVElv9wIyveIhlpA4DTzXQOUG8aMBv5FfKOmVoviQKxPA5ULRUBplz-u4zkQUcncEy-_iCl000]--></g></svg>