<svg xmlns="http://www.w3.org/2000/svg" xmlns:xlink="http://www.w3.org/1999/xlink" contentStyleType="text/css" data-diagram-type="CLASS" height="389px" preserveAspectRatio="none" style="width:240px;height:389px;background:#FFFFFF;" version="1.1" viewBox="0 0 240 389" width="240px" zoomAndPan="magnify"><defs/><g><g class="entity" data-entity="S" data-source-line="1" data-uid="ent0002" id="entity_S"><rect fill="#F1F1F1" height="36.2969" rx="2.5" ry="2.5" style="stroke:#181818;stroke-width:0.5;" width="204.8799" x="18.21" y="7"/><text fill="#000000" font-family="sans-serif" font-size="14" lengthAdjust="spacing" textLength="190.8799" x="25.21" y="21.9951">Scheduler : SchedulerActor</text><line style="stroke:#181818;stroke-width:0.5;" x1="19.21" x2="222.0899" y1="27.2969" y2="27.2969"/></g><g class="entity" data-entity="D" data-source-line="2" data-uid="ent0003" id="entity_D"><rect fill="#F1F1F1" height="36.2969" rx="2.5" ry="2.5" style="stroke:#181818;stroke-width:0.5;" width="227.3086" x="7" y="120.3"/><text fill="#000000" font-family="sans-serif" font-size="14" lengthAdjust="spacing" textLength="213.3086" x="14" y="135.2951">Discovery : DofDiscoveryActor</text><line style="stroke:#181818;stroke-width:0.5;" x1="8" x2="233.3086" y1="140.5969" y2="140.5969"/></g><g class="entity" data-entity="W1" data-source-line="3" data-uid="ent0004" id="entity_W1"><rect fill="#F1F1F1" height="36.2969" rx="2.5" ry="2.5" style="stroke:#181818;stroke-width:0.5;" width="207.1494" x="17.08" y="233.6"/><text fill="#000000" font-family="sans-serif" font-size="14" lengthAdjust="spacing" textLength="193.1494" x="24.08" y="248.5951">Worker 1 : DofScraperActor</text><line style="stroke:#181818;stroke-width:0.5;" x1="18.08" x2="223.2294" y1="253.8969" y2="253.8969"/></g><g class="entity" data-entity="P" data-source-line="4" data-uid="ent0005" id="entity_P"><rect fill="#F1F1F1" height="36.2969" rx="2.5" ry="2.5" style="stroke:#181818;stroke-width:0.5;" width="225.8525" x="7.73" y="346.89"/><text fill="#000000" font-family="sans-serif" font-size="14" lengthAdjust="spacing" textLength="211.8525" x="14.73" y="361.8851">Persistence : PersistenceActor</text><line style="stroke:#181818;stroke-width:0.5;" x1="8.73" x2="232.5825" y1="367.1869" y2="367.1869"/></g><!--reverse link S to D--><g class="link" data-entity-1="S" data-entity-2="D" data-source-line="6" data-uid="lnk6" id="link_S_D"><path codeLine="6" d="M120.65,55.54 C120.65,76.33 120.65,98.92 120.65,119.81" fill="none" id="S-backto-D" style="stroke:#181818;stroke-width:1;"/><polygon fill="none" points="120.65,43.54,116.65,49.54,120.65,55.54,124.65,49.54,120.65,43.54" style="stroke:#181818;stroke-width:1;"/><text fill="#000000" font-family="sans-serif" font-size="13" lengthAdjust="spacing" textLength="59.8584" x="121.65" y="86.3669">manages</text></g><!--link D to W1--><g class="link" data-entity-1="D" data-entity-2="W1" data-source-line="7" data-uid="lnk7" id="link_D_W1"><path codeLine="7" d="M120.65,156.84 C120.65,177.62 120.65,206.21 120.65,227.11" fill="none" id="D-to-W1" style="stroke:#181818;stroke-width:1;"/><polygon fill="#181818" points="120.65,233.11,124.65,224.11,120.65,228.11,116.65,224.11,120.65,233.11" style="stroke:#181818;stroke-width:1;"/><text fill="#000000" font-family="sans-serif" font-size="13" lengthAdjust="spacing" textLength="35.5977" x="121.65" y="199.6669">feeds</text></g><!--link W1 to P--><g class="link" data-entity-1="W1" data-entity-2="P" data-source-line="8" data-uid="lnk8" id="link_W1_P"><path codeLine="8" d="M120.65,270.13 C120.65,290.92 120.65,319.51 120.65,340.41" fill="none" id="W1-to-P" style="stroke:#181818;stroke-width:1;"/><polygon fill="#181818" points="120.65,346.41,124.65,337.41,120.65,341.41,116.65,337.41,120.65,346.41" style="stroke:#181818;stroke-width:1;"/><text fill="#000000" font-family="sans-serif" font-size="13" lengthAdjust="spacing" textLength="76.083" x="121.65" y="312.9569">pipes result</text></g><!--SRC=[JSon3i8m30JGFLzXTS_GbG49AHyGAKFdaBeGA7LafvNuUun0QRUxqzFHzO6fGXVI7STrHeOJj7n9bRY3A10C_Q7BacX3VYjqDBMwMzViGFpKn_v7G-9OZgT3twH7bYmLbuIA3stNtfW0P2qu5Q-un1kASM3jMOzqcX17CHg_YzUXv882ZBBEzGC0]--></g></svg>