<svg xmlns="http://www.w3.org/2000/svg" xmlns:xlink="http://www.w3.org/1999/xlink" contentStyleType="text/css" data-diagram-type="JSON" height="170px" preserveAspectRatio="none" style="width:1117px;height:170px;background:#FFFFFF;" version="1.1" viewBox="0 0 1117 170" width="1117px" zoomAndPan="magnify"><defs/><g><rect fill="#F1F1F1" height="101.4844" rx="5" ry="5" style="stroke:#F1F1F1;stroke-width:1.5;" width="342.875" x="10" y="27.7578"/><text fill="#000000" font-family="sans-serif" font-size="14" font-weight="bold" lengthAdjust="spacing" textLength="32.4775" x="15" y="42.7529">title</text><text fill="#000000" font-family="sans-serif" font-size="14" lengthAdjust="spacing" textLength="191.7891" x="156.0859" y="42.7529">LEY FEDERAL DEL TRABAJO</text><line style="stroke:#000000;stroke-width:1;" x1="151.0859" x2="151.0859" y1="27.7578" y2="48.0547"/><line style="stroke:#000000;stroke-width:1;" x1="10" x2="352.875" y1="48.0547" y2="48.0547"/><text fill="#000000" font-family="sans-serif" font-size="14" font-weight="bold" lengthAdjust="spacing" textLength="131.0859" x="15" y="63.0498">publication_date</text><text fill="#000000" font-family="sans-serif" font-size="14" lengthAdjust="spacing" textLength="81.3613" x="156.0859" y="63.0498">1970-04-01</text><line style="stroke:#000000;stroke-width:1;" x1="151.0859" x2="151.0859" y1="48.0547" y2="68.3516"/><line style="stroke:#000000;stroke-width:1;" x1="10" x2="352.875" y1="68.3516" y2="68.3516"/><text fill="#000000" font-family="sans-serif" font-size="14" font-weight="bold" lengthAdjust="spacing" textLength="88.9971" x="15" y="83.3467">jurisdiction</text><text fill="#000000" font-family="sans-serif" font-size="14" lengthAdjust="spacing" textLength="63.6289" x="156.0859" y="83.3467">FEDERAL</text><line style="stroke:#000000;stroke-width:1;" x1="151.0859" x2="151.0859" y1="68.3516" y2="88.6484"/><line style="stroke:#000000;stroke-width:1;" x1="10" x2="352.875" y1="88.6484" y2="88.6484"/><text fill="#000000" font-family="sans-serif" font-size="14" font-weight="bold" lengthAdjust="spacing" textLength="58.7686" x="15" y="103.6436">articles</text><text fill="#000000" font-family="sans-serif" font-size="14" lengthAdjust="spacing" textLength="13.3506" x="156.0859" y="103.6436">&#160;&#160;&#160;</text><line style="stroke:#000000;stroke-width:1;" x1="151.0859" x2="151.0859" y1="88.6484" y2="108.9453"/><line style="stroke:#000000;stroke-width:1;" x1="10" x2="352.875" y1="108.9453" y2="108.9453"/><text fill="#000000" font-family="sans-serif" font-size="14" font-weight="bold" lengthAdjust="spacing" textLength="75.8311" x="15" y="123.9404">metadata</text><text fill="#000000" font-family="sans-serif" font-size="14" lengthAdjust="spacing" textLength="13.3506" x="156.0859" y="123.9404">&#160;&#160;&#160;</text><line style="stroke:#000000;stroke-width:1;" x1="151.0859" x2="151.0859" y1="108.9453" y2="129.2422"/><rect fill="none" height="101.4844" rx="5" ry="5" style="stroke:#000000;stroke-width:1.5;" width="342.875" x="10" y="27.7578"/><rect fill="#F1F1F1" height="40.5938" rx="5" ry="5" style="stroke:#F1F1F1;stroke-width:1.5;" width="23.3506" x="512.5" y="59"/><text fill="#000000" font-family="sans-serif" font-size="14" lengthAdjust="spacing" textLength="13.3506" x="517.5" y="73.9951">&#160;&#160;&#160;</text><line style="stroke:#000000;stroke-width:1;" x1="512.5" x2="535.8506" y1="79.2969" y2="79.2969"/><text fill="#000000" font-family="sans-serif" font-size="14" lengthAdjust="spacing" textLength="13.3506" x="517.5" y="94.292">&#160;&#160;&#160;</text><rect fill="none" height="40.5938" rx="5" ry="5" style="stroke:#000000;stroke-width:1.5;" width="23.3506" x="512.5" y="59"/><rect fill="#F1F1F1" height="60.8906" rx="5" ry="5" style="stroke:#F1F1F1;stroke-width:1.5;" width="407.9668" x="696.5" y="10"/><text fill="#000000" font-family="sans-serif" font-size="14" font-weight="bold" lengthAdjust="spacing" textLength="73.0625" x="701.5" y="24.9951">identifier</text><text fill="#000000" font-family="sans-serif" font-size="14" lengthAdjust="spacing" textLength="38.6299" x="784.5625" y="24.9951">Art. 1</text><line style="stroke:#000000;stroke-width:1;" x1="779.5625" x2="779.5625" y1="10" y2="30.2969"/><line style="stroke:#000000;stroke-width:1;" x1="696.5" x2="1104.4668" y1="30.2969" y2="30.2969"/><text fill="#000000" font-family="sans-serif" font-size="14" font-weight="bold" lengthAdjust="spacing" textLength="60.7305" x="701.5" y="45.292">content</text><text fill="#000000" font-family="sans-serif" font-size="14" lengthAdjust="spacing" textLength="314.9043" x="784.5625" y="45.292">La presente Ley es de observancia general...</text><line style="stroke:#000000;stroke-width:1;" x1="779.5625" x2="779.5625" y1="30.2969" y2="50.5938"/><line style="stroke:#000000;stroke-width:1;" x1="696.5" x2="1104.4668" y1="50.5938" y2="50.5938"/><text fill="#000000" font-family="sans-serif" font-size="14" font-weight="bold" lengthAdjust="spacing" textLength="42.9434" x="701.5" y="65.5889">order</text><text fill="#000000" font-family="sans-serif" font-size="14" lengthAdjust="spacing" textLength="8.9072" x="784.5625" y="65.5889">1</text><line style="stroke:#000000;stroke-width:1;" x1="779.5625" x2="779.5625" y1="50.5938" y2="70.8906"/><rect fill="none" height="60.8906" rx="5" ry="5" style="stroke:#000000;stroke-width:1.5;" width="407.9668" x="696.5" y="10"/><rect fill="#F1F1F1" height="60.8906" rx="5" ry="5" style="stroke:#F1F1F1;stroke-width:1.5;" width="410.8926" x="695" y="89"/><text fill="#000000" font-family="sans-serif" font-size="14" font-weight="bold" lengthAdjust="spacing" textLength="73.0625" x="700" y="103.9951">identifier</text><text fill="#000000" font-family="sans-serif" font-size="14" lengthAdjust="spacing" textLength="38.6299" x="783.0625" y="103.9951">Art. 2</text><line style="stroke:#000000;stroke-width:1;" x1="778.0625" x2="778.0625" y1="89" y2="109.2969"/><line style="stroke:#000000;stroke-width:1;" x1="695" x2="1105.8926" y1="109.2969" y2="109.2969"/><text fill="#000000" font-family="sans-serif" font-size="14" font-weight="bold" lengthAdjust="spacing" textLength="60.7305" x="700" y="124.292">content</text><text fill="#000000" font-family="sans-serif" font-size="14" lengthAdjust="spacing" textLength="317.8301" x="783.0625" y="124.292">Las normas del trabajo tienden a conseguir...</text><line style="stroke:#000000;stroke-width:1;" x1="778.0625" x2="778.0625" y1="109.2969" y2="129.5938"/><line style="stroke:#000000;stroke-width:1;" x1="695" x2="1105.8926" y1="129.5938" y2="129.5938"/><text fill="#000000" font-family="sans-serif" font-size="14" font-weight="bold" lengthAdjust="spacing" textLength="42.9434" x="700" y="144.5889">order</text><text fill="#000000" font-family="sans-serif" font-size="14" lengthAdjust="spacing" textLength="8.9072" x="783.0625" y="144.5889">2</text><line style="stroke:#000000;stroke-width:1;" x1="778.0625" x2="778.0625" y1="129.5938" y2="149.8906"/><rect fill="none" height="60.8906" rx="5" ry="5" style="stroke:#000000;stroke-width:1.5;" width="410.8926" x="695" y="89"/><rect fill="#F1F1F1" height="40.5938" rx="5" ry="5" style="stroke:#F1F1F1;stroke-width:1.5;" width="268.042" x="390" y="118"/><text fill="#000000" font-family="sans-serif" font-size="14" font-weight="bold" lengthAdjust="spacing" textLength="85.6611" x="395" y="132.9951">scraped_at</text><text fill="#000000" font-family="sans-serif" font-size="14" lengthAdjust="spacing" textLength="162.3809" x="490.6611" y="132.9951">2023-10-27T10:00:00Z</text><line style="stroke:#000000;stroke-width:1;" x1="485.6611" x2="485.6611" y1="118" y2="138.2969"/><line style="stroke:#000000;stroke-width:1;" x1="390" x2="658.042" y1="138.2969" y2="138.2969"/><text fill="#000000" font-family="sans-serif" font-size="14" font-weight="bold" lengthAdjust="spacing" textLength="81.2861" x="395" y="153.292">source_url</text><text fill="#000000" font-family="sans-serif" font-size="14" lengthAdjust="spacing" textLength="147.793" x="490.6611" y="153.292">https://dof.gob.mx/...</text><line style="stroke:#000000;stroke-width:1;" x1="485.6611" x2="485.6611" y1="138.2969" y2="158.5938"/><rect fill="none" height="40.5938" rx="5" ry="5" style="stroke:#000000;stroke-width:1.5;" width="268.042" x="390" y="118"/><path d="M524.5,69.5 L537.5,69.5 C586.5928,69.5 639.3066,66.8245 688.9124,63.0987" fill="none" style="stroke:#000000;stroke-width:1;stroke-dasharray:3,3;"/><path d="M689.1452,66.1443 L691.1966,62.9242 L688.6797,60.0531 L696.5265,62.5169 L689.1452,66.1443" fill="#000000"/><ellipse cx="524.5" cy="69.5" fill="#000000" rx="3" ry="3" style="stroke:#000000;stroke-width:1;"/><path d="M524.5,89.5 L537.5,89.5 C586.1532,89.5 638.3549,92.2172 687.5623,96.0162" fill="none" style="stroke:#000000;stroke-width:1;stroke-dasharray:3,3;"/><path d="M687.3249,99.0376 L689.8283,96.1942 L687.7996,92.9948 L695.1159,96.6096 L687.3249,99.0376" fill="#000000"/><ellipse cx="524.5" cy="89.5" fill="#000000" rx="3" ry="3" style="stroke:#000000;stroke-width:1;"/><path d="M341,98.5 L354,98.5 C409.4519,98.5 474.4767,88.3331 505.3967,82.8736" fill="none" style="stroke:#000000;stroke-width:1;stroke-dasharray:3,3;"/><path d="M505.9328,85.85 L507.629,82.4715 L504.8606,79.8972 L512.8377,81.5333 L505.9328,85.85" fill="#000000"/><ellipse cx="341" cy="98.5" fill="#000000" rx="3" ry="3" style="stroke:#000000;stroke-width:1;"/><path d="M341,119.5 L354,119.5 C363.3461,119.5 372.9641,119.7888 382.645,120.2952" fill="none" style="stroke:#000000;stroke-width:1;stroke-dasharray:3,3;"/><path d="M382.4644,123.4045 L384.977,120.4306 L382.8255,117.1859 L390.4183,120.7466 L382.4644,123.4045" fill="#000000"/><ellipse cx="341" cy="119.5" fill="#000000" rx="3" ry="3" style="stroke:#000000;stroke-width:1;"/><!--SRC=[XPBTQjj048Nlzoa6NIKGovBguaPNSMCdOEGsk8wXBSMCfB6wPhrhziSaXBnxPwMKthGKnCBiENk-OKOtpgFr1sUqU140YPTUKL92KYs-mjrYlbZFAfWlAjYiPnzdoy_9LNITGgraWruQlMlHzm_owsasoYQZB1yyXs2bQsKJJL5_2nj4Pif6aMFXEzS0B_t9Ycn9UxcNPEEZcVKf386zsXZjMUyRH3XPSbmHLFGCvA0bCBKZUqRTI8IED5bKQPh-2J2sxPFp_kBrwh_muXzm1zhO8qQe0c-nneC1Bqbp122mrr4NfFqhlHZeVFxent4aZpn7P6de9N6DnHErE-nnHLQy6-NPg9XkygpCulVjBJLn9jY6Ti6gwFpf_ScLut5hzcbdwlJuD8uTY4Xx5JVSNhzhyQ1G-yTL1MUoZZS4USgGzscUNMm2mITpXcm2-RGiid9o3O-RMuZwfRYuVwXWO48hdRUo3d75bsA9PuHru04UgOHxYwYsgzyNiD1dQOq-yW35ShiguKke-JN_FB1TYJdjCIZFhiQqKdSb4-z67qI5kWlOSPuEIebRmsdsUQX-0G00]--></g></svg>