<svg xmlns="http://www.w3.org/2000/svg" xmlns:xlink="http://www.w3.org/1999/xlink" contentStyleType="text/css" data-diagram-type="SALT" height="260px" preserveAspectRatio="none" style="width:288px;height:260px;background:#FFFFFF;" version="1.1" viewBox="0 0 288 260" width="288px" zoomAndPan="magnify"><defs/><g><text fill="#000000" font-family="sans-serif" font-size="12" font-weight="bold" lengthAdjust="spacing" textLength="119.7539" x="6" y="19.1387">Legal Scraper TUI</text><line style="stroke:#000000;stroke-width:1;" x1="6" x2="125.7539" y1="6" y2="6"/><line style="stroke:#000000;stroke-width:1;" x1="6" x2="6" y1="6" y2="24.9688"/><line style="stroke:#000000;stroke-width:1;" x1="6" x2="125.7539" y1="24.9688" y2="24.9688"/><line style="stroke:#000000;stroke-width:1;" x1="125.7539" x2="125.7539" y1="24.9688" y2="34.9688"/><text fill="#000000" font-family="sans-serif" font-size="12" lengthAdjust="spacing" textLength="17.584" x="6" y="48.1074">[X]</text><line style="stroke:#000000;stroke-width:1;" x1="6" x2="125.7539" y1="34.9688" y2="34.9688"/><line style="stroke:#000000;stroke-width:1;" x1="6" x2="6" y1="34.9688" y2="53.9375"/><line style="stroke:#000000;stroke-width:1;" x1="6" x2="125.7539" y1="53.9375" y2="53.9375"/><line style="stroke:#000000;stroke-width:1;" x1="125.7539" x2="125.7539" y1="53.9375" y2="63.9375"/><rect fill="#EEEEEE" height="17.9688" rx="5" ry="5" style="stroke:#000000;stroke-width:2.5;" width="68" x="9.5" y="69.4375"/><text fill="#000000" font-family="sans-serif" font-size="12" lengthAdjust="spacing" textLength="52.1836" x="17.4082" y="82.5762">Discover</text><rect fill="#EEEEEE" height="17.9688" rx="5" ry="5" style="stroke:#000000;stroke-width:2.5;" width="52" x="84.5" y="69.4375"/><text fill="#000000" font-family="sans-serif" font-size="12" lengthAdjust="spacing" textLength="41.502" x="89.749" y="82.5762">Scrape</text><rect fill="#EEEEEE" height="17.9688" rx="5" ry="5" style="stroke:#000000;stroke-width:2.5;" width="52" x="143.5" y="69.4375"/><text fill="#000000" font-family="sans-serif" font-size="12" lengthAdjust="spacing" textLength="38.2383" x="150.3809" y="82.5762">Status</text><rect fill="#EEEEEE" height="17.9688" rx="5" ry="5" style="stroke:#000000;stroke-width:2.5;" width="52" x="202.5" y="69.4375"/><text fill="#000000" font-family="sans-serif" font-size="12" lengthAdjust="spacing" textLength="38.502" x="209.249" y="82.5762">Config</text><line style="stroke:#000000;stroke-width:1;" x1="6" x2="81" y1="65.9375" y2="65.9375"/><line style="stroke:#000000;stroke-width:1;" x1="81" x2="140" y1="90.9063" y2="90.9063"/><line style="stroke:#000000;stroke-width:1;" x1="81" x2="140" y1="65.9375" y2="65.9375"/><line style="stroke:#000000;stroke-width:1;" x1="140" x2="199" y1="90.9063" y2="90.9063"/><line style="stroke:#000000;stroke-width:1;" x1="140" x2="199" y1="65.9375" y2="65.9375"/><line style="stroke:#000000;stroke-width:1;" x1="199" x2="258" y1="90.9063" y2="90.9063"/><line style="stroke:#000000;stroke-width:1;" x1="199" x2="258" y1="65.9375" y2="65.9375"/><line style="stroke:#000000;stroke-width:1;" x1="6" x2="81" y1="90.9063" y2="90.9063"/><line style="stroke:#000000;stroke-width:1;" x1="6" x2="6" y1="65.9375" y2="90.9063"/><line style="stroke:#000000;stroke-width:1;" x1="258" x2="258" y1="65.9375" y2="90.9063"/><text fill="#000000" font-family="sans-serif" font-size="12" lengthAdjust="spacing" textLength="25.5879" x="27" y="121.0137">DOF</text><rect fill="none" height="10" style="stroke:#000000;stroke-width:1.5;" width="10" x="9" y="111.8594"/><polygon fill="#000000" points="10,115.875,13,118.875,20,109.875,13,116.875" style="stroke:#000000;stroke-width:1.5;"/><text fill="#000000" font-family="sans-serif" font-size="12" lengthAdjust="spacing" textLength="28.5117" x="211.0039" y="121.0137">SCJN</text><rect fill="none" height="10" style="stroke:#000000;stroke-width:1.5;" width="10" x="193.0039" y="111.8594"/><text fill="#000000" font-family="sans-serif" font-size="12" lengthAdjust="spacing" textLength="19.9805" x="261.5156" y="121.0137">BJV</text><rect fill="none" height="10" style="stroke:#000000;stroke-width:1.5;" width="10" x="243.5156" y="111.8594"/><text fill="#000000" font-family="sans-serif" font-size="12" lengthAdjust="spacing" textLength="182.0039" x="7" y="152.9512">Search Query: "Ley Federal..."</text><text fill="#000000" font-family="sans-serif" font-size="12" lengthAdjust="spacing" textLength="124.0605" x="7" y="168.9199">Max Results:  [ 100 ]</text><text fill="#000000" font-family="sans-serif" font-size="12" lengthAdjust="spacing" textLength="67.1426" x="16" y="185.8887">Log Output</text><text fill="#000000" font-family="sans-serif" font-size="12" lengthAdjust="spacing" textLength="162.832" x="26" y="199.8574">[INFO] Starting discovery...</text><text fill="#000000" font-family="sans-serif" font-size="12" lengthAdjust="spacing" textLength="172.623" x="26" y="213.8262">[INFO] Found 15 documents.</text><text fill="#000000" font-family="sans-serif" font-size="12" lengthAdjust="spacing" textLength="227.1094" x="26" y="227.7949">[OK] Saved: Ley_Federal_Trabajo.json</text><rect fill="none" height="2" style="stroke:#888888;stroke-width:1;" width="2" x="9" y="180.7344"/><line style="stroke:#888888;stroke-width:1;" x1="10" x2="10" y1="183.7344" y2="195.7031"/><line style="stroke:#888888;stroke-width:1;" x1="10" x2="18" y1="195.7031" y2="195.7031"/><line style="stroke:#888888;stroke-width:1;" x1="10" x2="10" y1="183.7344" y2="209.6719"/><line style="stroke:#888888;stroke-width:1;" x1="10" x2="18" y1="209.6719" y2="209.6719"/><line style="stroke:#888888;stroke-width:1;" x1="10" x2="10" y1="183.7344" y2="223.6406"/><line style="stroke:#888888;stroke-width:1;" x1="10" x2="18" y1="223.6406" y2="223.6406"/><rect fill="#EEEEEE" height="17.9688" rx="5" ry="5" style="stroke:#000000;stroke-width:2.5;" width="60" x="9.5" y="236.125"/><text fill="#000000" font-family="sans-serif" font-size="12" lengthAdjust="spacing" textLength="29.3145" x="24.8428" y="249.2637">Start</text><rect fill="#EEEEEE" height="17.9688" rx="5" ry="5" style="stroke:#000000;stroke-width:2.5;" width="52" x="76.5" y="236.125"/><text fill="#000000" font-family="sans-serif" font-size="12" lengthAdjust="spacing" textLength="27.2813" x="88.8594" y="249.2637">Stop</text><!--SRC=[NP5RJzj048NVzrSSyGIAQkm8rDP223Mf4QcTKE94I564nlRY6fdTQ2yM4UM_TzTEwUN56kz-vypCsIjjI1bDhM6l37WzXVi25yLbocjgiImLxRX2lhgvE2qkyHER-wr3tZmywjdDjD6bxBZQ-jj1C9I6ZDLzEP7YiQdVXRqk6DJtMqmN2Jo5BPQJsVnGVfcj_-AMd5Jv0zyjL_iOHodV8-4LLzG6GN3K8nczu8vhsneTEsD4OOZtbdcFZ93A6WjhTjOC1oDiRkR9mdNsGJIYHdLOP- -C_sCIQKM5w1oLBEqp5qR_8HRVd0Trl8hXXdiu3FUGAoheIGPFMef_rjyC7T7dusgvEmpxngwugFedORSj2RFAKhXvT2C5ec0SZi-3A3pEBSTSTWZF47sCns5yzXchV09_VyAEhszJQ6bLoVr2HZM5DSxWXCse8znPOPfd7kDQ4RNhxFS1legkKLButTXidSLOsiAfoN2iCpRbZ-JYTLGfAvTLx3ec7pwnb4HjgNP-mhOjcxYOZ7yc__SB]--></g></svg>