<svg xmlns="http://www.w3.org/2000/svg" xmlns:xlink="http://www.w3.org/1999/xlink" contentStyleType="text/css" data-diagram-type="DESCRIPTION" height="262px" preserveAspectRatio="none" style="width:609px;height:262px;background:#FFFFFF;" version="1.1" viewBox="0 0 609 262" width="609px" zoomAndPan="magnify"><defs/><g><!--cluster Legal Scraper--><g class="cluster" data-entity="Legal Scraper" data-source-line="5" data-uid="ent0004" id="cluster_Legal Scraper"><rect fill="none" height="216" rx="2.5" ry="2.5" style="stroke:#181818;stroke-width:1;" width="402.99" x="200.52" y="7"/><text fill="#000000" font-family="sans-serif" font-size="14" font-weight="bold" lengthAdjust="spacing" textLength="108.7119" x="347.659" y="21.9951">Legal Scraper</text></g><!--entity UC1--><g class="entity" data-entity="UC1" data-source-line="6" data-uid="ent0005" id="entity_UC1"><ellipse cx="289.2184" cy="189.9997" fill="#F1F1F1" rx="72.6984" ry="16.9397" style="stroke:#181818;stroke-width:0.5;"/><text fill="#000000" font-family="sans-serif" font-size="14" lengthAdjust="spacing" textLength="113.1006" x="232.6681" y="194.6481">Start Scrape Job</text></g><!--entity UC2--><g class="entity" data-entity="UC2" data-source-line="7" data-uid="ent0006" id="entity_UC2"><ellipse cx="289.216" cy="57.9952" fill="#F1F1F1" rx="68.776" ry="16.1552" style="stroke:#181818;stroke-width:0.5;"/><text fill="#000000" font-family="sans-serif" font-size="14" lengthAdjust="spacing" textLength="103.2773" x="237.5773" y="62.6436">Pause/Resume</text></g><!--entity UC3--><g class="entity" data-entity="UC3" data-source-line="8" data-uid="ent0007" id="entity_UC3"><ellipse cx="289.2197" cy="124.0036" fill="#F1F1F1" rx="52.8697" ry="14.5236" style="stroke:#181818;stroke-width:0.5;"/><text fill="#000000" font-family="sans-serif" font-size="14" lengthAdjust="spacing" textLength="70.5264" x="253.9565" y="128.6521">View Logs</text></g><!--entity UC4--><g class="entity" data-entity="UC4" data-source-line="9" data-uid="ent0008" id="entity_UC4"><ellipse cx="525.7171" cy="171.9994" fill="#F1F1F1" rx="61.7971" ry="14.7594" style="stroke:#181818;stroke-width:0.5;"/><text fill="#000000" font-family="sans-serif" font-size="14" lengthAdjust="spacing" textLength="84.7861" x="483.324" y="176.6479">Export JSON</text></g><!--entity User--><g class="entity" data-entity="User" data-source-line="2" data-uid="ent0002" id="entity_User"><ellipse cx="45.7612" cy="78.35" fill="#F1F1F1" rx="8" ry="8" style="stroke:#181818;stroke-width:0.5;"/><path d="M45.7612,86.35 L45.7612,113.35 M32.7612,94.35 L58.7612,94.35 M45.7612,113.35 L32.7612,128.35 M45.7612,113.35 L58.7612,128.35" fill="none" style="stroke:#181818;stroke-width:0.5;"/><text fill="#000000" font-family="sans-serif" font-size="14" lengthAdjust="spacing" textLength="79.5225" x="6" y="142.8451">Researcher</text></g><!--entity Auto--><g class="entity" data-entity="Auto" data-source-line="3" data-uid="ent0003" id="entity_Auto"><ellipse cx="45.7644" cy="189.35" fill="#F1F1F1" rx="8" ry="8" style="stroke:#181818;stroke-width:0.5;"/><path d="M45.7644,197.35 L45.7644,224.35 M32.7644,205.35 L58.7644,205.35 M45.7644,224.35 L32.7644,239.35 M45.7644,224.35 L58.7644,239.35" fill="none" style="stroke:#181818;stroke-width:0.5;"/><text fill="#000000" font-family="sans-serif" font-size="14" lengthAdjust="spacing" textLength="70.0889" x="10.72" y="253.8451">Scheduler</text></g><!--link User to UC1--><g class="link" data-entity-1="User" data-entity-2="UC1" data-source-line="12" data-uid="lnk9" id="link_User_UC1"><path d="M85.82,121.27 C130,136.27 195.9687,158.6706 241.1087,174.0006" fill="none" id="User-to-UC1" style="stroke:#181818;stroke-width:1;"/><polygon fill="#181818" points="246.79,175.93,239.5543,169.2483,242.0556,174.3221,236.9817,176.8234,246.79,175.93" style="stroke:#181818;stroke-width:1;"/></g><!--link User to UC2--><g class="link" data-entity-1="User" data-entity-2="UC2" data-source-line="13" data-uid="lnk10" id="link_User_UC2"><path d="M85.98,98.63 C95.63,96.39 105.94,94.06 115.52,92 C155.26,83.47 194.4269,75.7575 228.5569,69.2275" fill="none" id="User-to-UC2" style="stroke:#181818;stroke-width:1;"/><polygon fill="#181818" points="234.45,68.1,224.8587,65.8625,229.5391,69.0396,226.362,73.72,234.45,68.1" style="stroke:#181818;stroke-width:1;"/></g><!--link User to UC3--><g class="link" data-entity-1="User" data-entity-2="UC3" data-source-line="14" data-uid="lnk11" id="link_User_UC3"><path d="M85.82,110.59 C127.07,113.32 186.2632,117.2426 231.4632,120.2426" fill="none" id="User-to-UC3" style="stroke:#181818;stroke-width:1;"/><polygon fill="#181818" points="237.45,120.64,228.7347,116.0527,232.461,120.3089,228.2049,124.0352,237.45,120.64" style="stroke:#181818;stroke-width:1;"/></g><!--link Auto to UC1--><g class="link" data-entity-1="Auto" data-entity-2="UC1" data-source-line="15" data-uid="lnk12" id="link_Auto_UC1"><path d="M81.04,219.6 C92.05,219.76 104.3,219.92 115.52,220 C146.19,220.22 154.16,224.31 184.52,220 C206.05,216.95 223.6484,212.3379 242.6984,206.2079" fill="none" id="Auto-to-UC1" style="stroke:#181818;stroke-width:1;"/><polygon fill="#181818" points="248.41,204.37,238.6174,203.3191,243.6504,205.9016,241.0679,210.9346,248.41,204.37" style="stroke:#181818;stroke-width:1;"/><text fill="#000000" font-family="sans-serif" font-size="13" lengthAdjust="spacing" textLength="67.6406" x="116.52" y="216.0669">Daily Cron</text></g><!--link UC1 to UC4--><g class="link" data-entity-1="UC1" data-entity-2="UC4" data-source-line="16" data-uid="lnk13" id="link_UC1_UC4"><path d="M358.68,184.75 C392.88,182.12 427.8376,179.4396 460.5076,176.9296" fill="none" id="UC1-to-UC4" style="stroke:#181818;stroke-width:1;stroke-dasharray:7,7;"/><polygon fill="#181818" points="466.49,176.47,457.21,173.1712,461.5047,176.853,457.8229,181.1477,466.49,176.47" style="stroke:#181818;stroke-width:1;"/><text fill="#000000" font-family="sans-serif" font-size="13" lengthAdjust="spacing" textLength="40.752" x="392.92" y="176.0669">Result</text></g><!--SRC=[JS_1YW8n30RWUvuYzAwowic3iBXUH5Hsq7ksnh5Gfv9cS4LyTzlT2hqr-TB-gUUJeWOKrvuLZqxOgWiTaDKWQBuvCeazinYaYFl8ygOcTO-zB_BPQm38jwbhFQDPSqiU6ojqpICFGEmZMuh96YNHOhWAF_zlBpxgcHsbuoZbznSkFgxzuFY6wz36WfCQbx_Na19MpNPJU0fFWBm-3WRplwog6DV51F9VtcCuG_D5pjzn8Q4pa5l3OQPffhoVL_C2]--></g></svg>